<?xml version="1.0" encoding="utf-8"?>
<!-- Generator: Adobe Illustrator 17.0.2, SVG Export Plug-In . SVG Version: 6.00 Build 0)  -->
<!DOCTYPE svg PUBLIC "-//W3C//DTD SVG 1.1//EN" "http://www.w3.org/Graphics/SVG/1.1/DTD/svg11.dtd">
<svg version="1.1" id="Layer_1" xmlns="http://www.w3.org/2000/svg" xmlns:xlink="http://www.w3.org/1999/xlink" x="0px" y="0px"
	 width="180.031px" height="180.031px" viewBox="0 0 180.031 180.031" enable-background="new 0 0 180.031 180.031"
	 xml:space="preserve">
<g id="New_D_1_">
	<g id="Layer_9_1_">
		<g>
			<path fill="#216399" d="M66.114,164.511l40.029,0c4.015,0,7.759-0.752,11.231-2.259c3.471-1.506,6.525-3.555,9.16-6.149
				c2.635-2.592,4.706-5.626,6.212-9.098c1.506-3.471,2.259-7.216,2.259-11.231l0.001-91.477c0-4.015-0.752-7.759-2.259-11.231
				c-1.506-3.471-3.577-6.525-6.212-9.16s-5.689-4.706-9.16-6.212c-3.472-1.506-7.216-2.259-11.231-2.259l-40.029,0l-16.188-0.02
				l0-15.415l56.971,0c6.106,0,11.858,1.15,17.255,3.451c5.396,2.302,10.102,5.458,14.117,9.475s7.173,8.721,9.474,14.117
				c2.3,5.396,3.451,11.149,3.451,17.255l-0.001,91.478c0,6.107-1.152,11.838-3.451,17.191c-2.302,5.355-5.458,10.039-9.475,14.054
				s-8.721,7.174-14.117,9.474c-5.396,2.302-11.149,3.451-17.255,3.451l-56.971,0l0-15.414"/>
		</g>
	</g>
	<g id="New_bar_1_">
		<rect x="49.927" y="114.254" fill="#216399" width="16.188" height="65.69"/>
	</g>
	<g id="New_bar_copy_2_1_">
		<rect x="49.927" y="0.001" fill="#216399" width="16.188" height="65.69"/>
	</g>
	<g id="Bar_1_">
		<rect x="25.175" y="81.879" fill="#216399" width="65.69" height="16.188"/>
	</g>
	<g display="none">
		<path display="inline" fill="#216399" d="M147.742,152.966c-2.302,5.355-5.458,10.039-9.475,14.054
			c-4.016,4.015-8.721,7.174-14.117,9.474c-5.396,2.302-11.149,3.451-17.255,3.451l-56.969,0l0-15.414l0.001-149.117l0-15.414
			l56.971,0c6.106,0,11.858,1.15,17.255,3.451c5.396,2.302,10.102,5.458,14.117,9.475s7.173,8.721,9.474,14.117
			c2.3,5.396,3.451,11.149,3.451,17.255l-0.001,91.478C151.193,141.882,150.043,147.614,147.742,152.966z M135.006,44.297
			c0-4.015-0.752-7.759-2.259-11.231c-1.506-3.471-3.577-6.525-6.212-9.16s-5.689-4.706-9.16-6.212
			c-3.472-1.506-7.216-2.259-11.231-2.259l-40.029,0l-0.001,149.075l40.029,0c4.015,0,7.759-0.752,11.231-2.259
			c3.471-1.506,6.525-3.555,9.16-6.149c2.635-2.592,4.706-5.626,6.212-9.098c1.506-3.471,2.259-7.216,2.259-11.231L135.006,44.297z"
			/>
	</g>
</g>
</svg>
