<?xml version="1.0" encoding="utf-8"?>
<!-- Generator: Adobe Illustrator 16.0.0, SVG Export Plug-In . SVG Version: 6.00 Build 0)  -->
<!DOCTYPE svg PUBLIC "-//W3C//DTD SVG 1.1//EN" "http://www.w3.org/Graphics/SVG/1.1/DTD/svg11.dtd" [
	<!ENTITY ns_extend "http://ns.adobe.com/Extensibility/1.0/">
	<!ENTITY ns_ai "http://ns.adobe.com/AdobeIllustrator/10.0/">
	<!ENTITY ns_graphs "http://ns.adobe.com/Graphs/1.0/">
	<!ENTITY ns_vars "http://ns.adobe.com/Variables/1.0/">
	<!ENTITY ns_imrep "http://ns.adobe.com/ImageReplacement/1.0/">
	<!ENTITY ns_sfw "http://ns.adobe.com/SaveForWeb/1.0/">
	<!ENTITY ns_custom "http://ns.adobe.com/GenericCustomNamespace/1.0/">
	<!ENTITY ns_adobe_xpath "http://ns.adobe.com/XPath/1.0/">
]>
<svg version="1.1" id="Layer_1" xmlns:x="&ns_extend;" xmlns:i="&ns_ai;" xmlns:graph="&ns_graphs;"
	 xmlns="http://www.w3.org/2000/svg" xmlns:xlink="http://www.w3.org/1999/xlink" x="0px" y="0px" width="72.212px"
	 height="63.479px" viewBox="1275.799 45.921 72.212 63.479" enable-background="new 1275.799 45.921 72.212 63.479"
	 xml:space="preserve">
<metadata>
	<sfw  xmlns="&ns_sfw;">
		<slices></slices>
		<sliceSourceBounds  height="16383" width="16383" bottomLeftOrigin="true" x="-7682" y="-7691"></sliceSourceBounds>
		<optimizationSettings>
			<targetSettings  targetSettingsID="0" fileFormat="PNG24Format">
				<PNG24Format  transparency="true" interlaced="false" filtered="false" noMatteColor="false" matteColor="#FFFFFF">
					</PNG24Format>
			</targetSettings>
		</optimizationSettings>
	</sfw>
</metadata>
<path fill="#8792A4" d="M1341.742,55.29h-60.209l-5.734,9.318h0.001c0.009,3.161,2.57,5.719,5.733,5.719
	c1.715,0,3.25-0.756,4.301-1.948c1.051,1.192,2.585,1.948,4.301,1.948c1.715,0,3.25-0.756,4.301-1.948
	c1.051,1.192,2.585,1.948,4.301,1.948c1.715,0,3.249-0.756,4.3-1.948c1.051,1.192,2.586,1.948,4.301,1.948
	c1.716,0,3.25-0.756,4.301-1.948c1.051,1.192,2.585,1.948,4.301,1.948s3.25-0.756,4.301-1.948c1.051,1.192,2.585,1.948,4.301,1.948
	s3.249-0.756,4.3-1.948c1.051,1.192,2.585,1.948,4.301,1.948c1.717,0,3.25-0.756,4.301-1.948c1.051,1.192,2.585,1.948,4.301,1.948
	c3.163,0,5.725-2.558,5.733-5.719h0.001L1341.742,55.29z"/>
<path fill="#8792A4" d="M1337.442,72.038c-1.295,0.863-2.776,1.332-4.301,1.332s-3.006-0.469-4.301-1.332
	c-1.295,0.863-2.775,1.332-4.3,1.332c-1.525,0-3.006-0.469-4.301-1.332c-1.296,0.863-2.776,1.332-4.301,1.332
	s-3.006-0.469-4.301-1.332c-1.295,0.863-2.776,1.332-4.301,1.332s-3.005-0.469-4.301-1.332c-1.295,0.863-2.775,1.332-4.3,1.332
	c-1.525,0-3.006-0.469-4.301-1.332c-1.295,0.863-2.776,1.332-4.301,1.332s-3.006-0.469-4.301-1.332
	c-1.295,0.863-2.776,1.332-4.301,1.332v32.094h6.451V79.66h12.901v25.804h40.856V73.37
	C1340.218,73.37,1338.737,72.901,1337.442,72.038z M1335.291,96.146h-27.954V79.66h27.954V96.146z"/>
</svg>
