<?xml version="1.0" encoding="utf-8"?>
<!-- Generator: Adobe Illustrator 16.0.0, SVG Export Plug-In . SVG Version: 6.00 Build 0)  -->
<!DOCTYPE svg PUBLIC "-//W3C//DTD SVG 1.1//EN" "http://www.w3.org/Graphics/SVG/1.1/DTD/svg11.dtd" [
	<!ENTITY ns_extend "http://ns.adobe.com/Extensibility/1.0/">
	<!ENTITY ns_ai "http://ns.adobe.com/AdobeIllustrator/10.0/">
	<!ENTITY ns_graphs "http://ns.adobe.com/Graphs/1.0/">
	<!ENTITY ns_vars "http://ns.adobe.com/Variables/1.0/">
	<!ENTITY ns_imrep "http://ns.adobe.com/ImageReplacement/1.0/">
	<!ENTITY ns_sfw "http://ns.adobe.com/SaveForWeb/1.0/">
	<!ENTITY ns_custom "http://ns.adobe.com/GenericCustomNamespace/1.0/">
	<!ENTITY ns_adobe_xpath "http://ns.adobe.com/XPath/1.0/">
]>
<svg version="1.1" id="Layer_1" xmlns:x="&ns_extend;" xmlns:i="&ns_ai;" xmlns:graph="&ns_graphs;"
	 xmlns="http://www.w3.org/2000/svg" xmlns:xlink="http://www.w3.org/1999/xlink" x="0px" y="0px" width="71.274px"
	 height="63.283px" viewBox="1551.562 45.921 71.274 63.283" enable-background="new 1551.562 45.921 71.274 63.283"
	 xml:space="preserve">
<metadata>
	<sfw  xmlns="&ns_sfw;">
		<slices></slices>
		<sliceSourceBounds  height="16383" width="16383" bottomLeftOrigin="true" x="-7682" y="-7691"></sliceSourceBounds>
		<optimizationSettings>
			<targetSettings  targetSettingsID="0" fileFormat="PNG24Format">
				<PNG24Format  transparency="true" interlaced="false" filtered="false" noMatteColor="false" matteColor="#FFFFFF">
					</PNG24Format>
			</targetSettings>
		</optimizationSettings>
	</sfw>
</metadata>
<path id="wy_2_" fill="#8792A4" d="M1578.53,66.585c-0.157,2.259-0.312,4.519-0.465,6.777c-2.966-0.234-5.909-0.567-8.856-0.969
	c0.187-1.263,0.372-2.524,0.558-3.787c0.188-1.29-0.119-3.013,1.327-2.812C1573.565,66.138,1576.044,66.398,1578.53,66.585z"/>
<path fill="#FFFFFF" d="M1578.065,73.763c-0.011,0-0.021-0.001-0.031-0.002c-2.802-0.221-5.706-0.539-8.879-0.971
	c-0.106-0.015-0.202-0.07-0.266-0.156c-0.064-0.085-0.092-0.193-0.076-0.299l0.558-3.787c0.039-0.27,0.056-0.561,0.072-0.847
	c0.061-1.045,0.128-2.523,1.705-2.303c2.41,0.335,4.904,0.6,7.412,0.788c0.219,0.016,0.384,0.207,0.369,0.426
	c-0.157,2.26-0.312,4.519-0.465,6.777c-0.008,0.106-0.057,0.205-0.138,0.275C1578.253,73.728,1578.16,73.763,1578.065,73.763z
	 M1569.663,72.052c2.851,0.382,5.486,0.671,8.029,0.879c0.135-1.992,0.271-3.984,0.41-5.978c-2.391-0.187-4.765-0.443-7.064-0.762
	c-0.585-0.088-0.722,0.247-0.797,1.556c-0.019,0.311-0.037,0.624-0.08,0.917L1569.663,72.052z"/>
<path id="wv_1_" fill="#8792A4" d="M1609.418,73.811c-0.004,0.285,0.099,0.593,0.146,0.875c0.335-0.472,0.599-0.806,1.058-0.78
	c0.293,0.016,0.259-0.384,0.604-0.334c0.353,0.051,0.642,0.794,0.382,0.741c-1.961-0.396-2.212,5.714-5.104,3.589
	c-0.783-0.576-0.896-1.67-0.126-2.263c0.218-0.167,0.901-0.828,1.032-1.04c0.283-0.457,0.15-1.971,0.414-2.09
	c0.09,0.514,0.18,1.027,0.271,1.542C1608.535,73.971,1608.977,73.891,1609.418,73.811"/>
<path fill="#FFFFFF" d="M1607.634,78.752c-0.437,0-0.884-0.173-1.367-0.528c-0.501-0.369-0.805-0.938-0.812-1.524
	c-0.006-0.538,0.241-1.041,0.679-1.377c0.212-0.164,0.847-0.788,0.938-0.935c0.089-0.144,0.128-0.647,0.153-0.981
	c0.052-0.665,0.086-1.104,0.435-1.262c0.113-0.054,0.243-0.048,0.353,0.011c0.108,0.058,0.186,0.163,0.206,0.284l0.201,1.146
	l0.928-0.168c0.117-0.02,0.239,0.011,0.33,0.089c0.082,0.069,0.132,0.168,0.14,0.273c0.203-0.163,0.445-0.274,0.752-0.275
	c0.119-0.149,0.289-0.337,0.601-0.337c0.02,0,0.094,0.006,0.112,0.008c0.493,0.071,0.852,0.705,0.824,1.082
	c-0.02,0.293-0.298,0.512-0.578,0.447c-0.555-0.108-1.008,0.792-1.469,1.675C1609.477,77.491,1608.817,78.751,1607.634,78.752z
	 M1607.907,74.404c-0.037,0.154-0.086,0.292-0.155,0.404c-0.174,0.278-0.906,0.974-1.13,1.146c-0.239,0.186-0.37,0.446-0.367,0.735
	c0.004,0.336,0.186,0.668,0.486,0.889c0.336,0.247,0.637,0.372,0.893,0.372c0.698,0,1.216-0.987,1.716-1.943
	c0.322-0.616,0.651-1.246,1.069-1.655c-0.166,0.078-0.312,0.258-0.529,0.565c-0.095,0.131-0.264,0.192-0.416,0.157
	c-0.158-0.036-0.278-0.164-0.305-0.324c-0.015-0.086-0.034-0.174-0.055-0.264c-0.015-0.066-0.03-0.136-0.045-0.207l-0.903,0.164
	C1608.075,74.458,1607.985,74.445,1607.907,74.404z"/>
<path id="wi_1_" fill="#8792A4" d="M1594.366,70.544c-0.501-0.229-0.168-1.628-0.608-2.068c-0.713-0.711-1.928-0.902-1.711-2.1
	c0.088-0.488-0.238-0.328-0.238-0.708c0-0.527,0.689-0.491,0.669-1.021c-0.027-0.678,1.616-1.453,1.706-1.214
	c-0.08,0.158-0.136,0.325-0.166,0.5c0.439,0.083,3.402,0.859,3.412,1.033c-0.012-0.193,1.174,2.371,0.38,2.163
	c0.177,0.047,0.367-0.523,0.509-0.585c-0.191,0.082-0.045,3.617,0.023,4.058C1597.156,70.705,1595.337,71.197,1594.366,70.544
	C1594.237,70.485,1594.431,70.587,1594.366,70.544z"/>
<path fill="#FFFFFF" d="M1595.775,71.276c-0.666,0-1.183-0.119-1.577-0.365c-0.026-0.013-0.053-0.028-0.078-0.046
	c-0.396-0.199-0.442-0.784-0.483-1.301c-0.021-0.278-0.055-0.699-0.161-0.806c-0.187-0.186-0.432-0.343-0.669-0.494
	c-0.602-0.385-1.351-0.863-1.152-1.96c-0.07-0.13-0.245-0.292-0.245-0.637c0-0.466,0.315-0.694,0.504-0.83
	c0.168-0.122,0.167-0.136,0.166-0.175c-0.012-0.276,0.115-0.555,0.376-0.826c0.419-0.437,1.21-0.849,1.628-0.849
	c0.337,0,0.45,0.232,0.477,0.304c0.04,0.105,0.033,0.223-0.018,0.323c-0.003,0.005-0.006,0.011-0.009,0.017
	c0.747,0.163,2.248,0.523,2.937,0.926c0.096,0.009,0.191,0.055,0.258,0.123c0.13,0.133,0.452,0.836,0.632,1.466
	c0.138,0.014,0.265,0.1,0.325,0.235c0.055,0.124,0.042,0.261-0.023,0.369c-0.097,0.509,0.012,3.366,0.077,3.789
	c0.017,0.109-0.013,0.221-0.081,0.309c-0.068,0.087-0.169,0.142-0.279,0.151c-0.261,0.022-0.553,0.065-0.859,0.109
	C1596.971,71.188,1596.352,71.276,1595.775,71.276z M1593.618,63.962c-0.357,0.195-0.747,0.506-0.741,0.67
	c0.019,0.48-0.303,0.714-0.495,0.854c-0.165,0.119-0.173,0.139-0.173,0.183c0.16,0.146,0.309,0.354,0.231,0.779
	c-0.099,0.545,0.188,0.755,0.796,1.144c0.273,0.174,0.556,0.354,0.803,0.602c0.316,0.315,0.356,0.82,0.395,1.31
	c0.018,0.228,0.048,0.609,0.119,0.692c0.303,0.196,0.69,0.282,1.222,0.282c0.521,0,1.084-0.081,1.629-0.159
	c0.174-0.025,0.343-0.05,0.505-0.07c-0.052-0.611-0.132-1.782-0.095-2.714c-0.016-0.002-0.032-0.004-0.048-0.007
	c-0.02-0.002-0.039-0.006-0.055-0.01h-0.001c-0.214-0.056-0.342-0.273-0.287-0.487c0.035-0.134,0.134-0.235,0.255-0.277
	c-0.049-0.431-0.39-1.245-0.523-1.496c-0.005-0.005-0.01-0.01-0.015-0.015c-0.416-0.207-2.761-0.833-3.196-0.916
	C1593.762,64.291,1593.632,64.139,1593.618,63.962z"/>
<path id="wa_1_" fill="#8792A4" d="M1556.569,60.738c-0.653-0.212-0.972-0.303-0.802-0.994c-0.118,0.316-0.069,0.401,0.146,0.255
	c-0.013-0.253-0.034-0.504-0.062-0.755c0.115,0.073,0.237,0.076,0.365,0.011c-0.201-0.299-0.315-0.341-0.344-0.126
	c-0.1-0.786,0.119-1.686,0-2.459c0.36,0.244,1.777,1.396,2.011,0.99c0.006,0.156-0.076,1.368,0.08,1.404
	c0.507,0.116,0.231-2.653,0.315-2.748c1.984,0.533,3.975,1.039,5.987,1.454c0.589,0.121-0.683,3.989-0.589,5.017
	c-1.127-0.232-2.152-0.525-3.301-0.466c-0.9,0.047-2.002-0.546-2.815-0.337C1556.633,62.223,1557.109,61.021,1556.569,60.738"/>
<path fill="#FFFFFF" d="M1563.675,63.188c-0.027,0-0.054-0.003-0.081-0.009l-0.601-0.129c-0.881-0.193-1.702-0.371-2.598-0.329
	l-0.125,0.003c-0.421,0-0.854-0.104-1.272-0.205c-0.516-0.123-1.016-0.229-1.339-0.146c-0.903,0.229-1.102-0.553-1.164-0.905
	c-0.021-0.112-0.062-0.348-0.112-0.374c-0.486-0.152-1.018-0.324-1.059-0.951c-0.058-0.2,0.023-0.417,0.067-0.536
	c0.019-0.051,0.046-0.095,0.08-0.132c-0.006-0.062-0.013-0.123-0.02-0.185c-0.007-0.057-0.001-0.112,0.016-0.164
	c-0.044-0.403-0.018-0.817,0.009-1.22c0.028-0.422,0.054-0.819-0.001-1.175c-0.024-0.157,0.047-0.313,0.182-0.398
	c0.134-0.087,0.305-0.083,0.438,0.007c0.061,0.041,0.149,0.106,0.257,0.186c0.656,0.482,1.092,0.755,1.296,0.811
	c0.065-0.047,0.144-0.073,0.226-0.075c-0.002-0.118-0.005-0.223-0.007-0.303c-0.016-0.645-0.019-0.761,0.11-0.906
	c0.102-0.113,0.258-0.157,0.403-0.121c1.63,0.438,3.781,0.999,5.965,1.449c0.14,0.028,0.262,0.113,0.344,0.238
	c0.256,0.393,0.116,1.205-0.263,2.967c-0.181,0.844-0.387,1.8-0.354,2.167c0.012,0.126-0.038,0.25-0.132,0.335
	C1563.867,63.151,1563.773,63.188,1563.675,63.188z M1560.68,61.913c0.869,0,1.654,0.173,2.485,0.355l0.128,0.027
	c0.055-0.495,0.195-1.153,0.353-1.88c0.164-0.766,0.405-1.885,0.378-2.287c-1.936-0.404-3.832-0.889-5.358-1.295
	c0,0.033,0.001,0.068,0.002,0.104c0.034,1.393-0.001,2.064-0.295,2.366c-0.126,0.128-0.334,0.189-0.5,0.149
	c-0.389-0.087-0.425-0.503-0.402-1.342c-0.333-0.088-0.736-0.335-1.167-0.637c-0.007,0.161-0.018,0.323-0.027,0.483
	c-0.017,0.254-0.033,0.5-0.031,0.733c0.117,0.083,0.214,0.209,0.303,0.34c0.063,0.095,0.084,0.213,0.056,0.323
	c-0.029,0.111-0.104,0.204-0.206,0.257c-0.034,0.018-0.07,0.033-0.105,0.046c0.008,0.106,0.016,0.214,0.021,0.321
	c0.004,0.08-0.016,0.158-0.056,0.225c0.079,0.035,0.205,0.08,0.404,0.145c0.021,0.007,0.073,0.025,0.094,0.036
	c0.398,0.208,0.474,0.633,0.529,0.943c0.018,0.101,0.047,0.268,0.078,0.311c0.002-0.022,0.039-0.025,0.099-0.041
	c0.496-0.127,1.138,0.001,1.726,0.145c0.391,0.094,0.759,0.183,1.085,0.183C1560.464,61.916,1560.573,61.913,1560.68,61.913z"/>
<path id="vt_1_" fill="#8792A4" d="M1617.087,62.85c0.229,0.872-1.091,3.321-0.136,4.053c-1.646,0.927-1.479-2.495-2-3.479
	C1615.662,63.231,1616.375,63.04,1617.087,62.85"/>
<path fill="#FFFFFF" d="M1616.443,67.46c-1.062,0-1.312-1.376-1.532-2.59c-0.09-0.5-0.184-1.017-0.312-1.261
	c-0.057-0.107-0.062-0.234-0.014-0.347c0.049-0.111,0.146-0.194,0.264-0.227l2.136-0.574c0.102-0.027,0.212-0.014,0.305,0.041
	c0.092,0.053,0.158,0.141,0.186,0.244c0.114,0.435-0.033,1.03-0.205,1.72c-0.191,0.771-0.454,1.827-0.074,2.118
	c0.106,0.081,0.165,0.211,0.156,0.346c-0.01,0.134-0.086,0.254-0.203,0.32C1616.902,67.39,1616.664,67.46,1616.443,67.46z
	 M1615.48,63.695c0.086,0.302,0.151,0.66,0.219,1.032c0.111,0.613,0.286,1.579,0.578,1.855c-0.196-0.65,0.02-1.518,0.216-2.309
	c0.076-0.307,0.159-0.639,0.198-0.905L1615.48,63.695z"/>
<path id="va_eastern_shore_1_" fill="#8792A4" d="M1614.977,76.857c-0.062,0.139-0.126,0.276-0.188,0.415
	c-0.19-0.694-0.099-1.318,0.458-1.592C1615.167,76.075,1615.077,76.468,1614.977,76.857
	C1614.943,77.066,1615.074,76.278,1614.977,76.857z"/>
<path fill="#FFFFFF" d="M1614.788,77.673c-0.01,0-0.021-0.001-0.031-0.002c-0.168-0.013-0.31-0.13-0.354-0.293
	c-0.266-0.968-0.022-1.718,0.667-2.057c0.137-0.067,0.299-0.051,0.421,0.042c0.12,0.094,0.178,0.247,0.148,0.396
	c-0.08,0.397-0.171,0.794-0.272,1.188c-0.001,0.005-0.002,0.009-0.003,0.014c-0.006,0.02-0.012,0.038-0.021,0.057
	c-0.002,0.007-0.005,0.013-0.008,0.019l-0.183,0.4C1615.088,77.581,1614.945,77.673,1614.788,77.673z"/>
<path id="va_mainland_1_" fill="#8792A4" d="M1604.823,79.938c3.407-0.452,6.773-1.039,10.141-1.729
	c-0.366-0.479-0.51-1.305-0.666-1.511c-0.466-0.856-1.18-0.599-1.692-1.113c0.273-0.551-0.069-1.697-0.853-1.544
	c0.013,0.676-0.761-0.496-0.91,0.434c-0.074,0.454-0.668,1.526-1.159,1.345c-0.258-0.096-0.646,1.421-0.636,1.653
	c0.02,0.505-1.012,0.792-1.405,0.825c-1.192,0.051-0.448-0.073-1.534,0.456C1605.571,79.068,1605.59,79.623,1604.823,79.938"/>
<path fill="#FFFFFF" d="M1604.875,80.334l-0.053-0.4l-0.15-0.366c0.328-0.135,0.455-0.314,0.617-0.542
	c0.146-0.205,0.31-0.438,0.616-0.617c0.362-0.178,0.51-0.274,0.598-0.332c0.229-0.148,0.311-0.156,0.662-0.164l0.46-0.015
	c0.377-0.032,0.97-0.273,1.023-0.423c-0.011-0.206,0.281-1.645,0.717-1.962c0.108-0.078,0.332-0.113,0.457-0.069
	c0.157-0.041,0.567-0.686,0.624-1.033c0.019-0.118,0.077-0.478,0.383-0.641c0.232-0.124,0.464-0.066,0.636,0.004
	c0.056-0.063,0.128-0.109,0.21-0.126c0.425-0.084,0.813,0.075,1.084,0.43c0.281,0.368,0.395,0.91,0.311,1.358
	c0.105,0.058,0.227,0.098,0.365,0.144c0.385,0.127,0.864,0.284,1.214,0.927c0.068,0.083,0.133,0.274,0.222,0.54
	c0.103,0.304,0.229,0.683,0.41,0.919c0.084,0.109,0.105,0.254,0.058,0.383c-0.049,0.13-0.16,0.225-0.295,0.252
	C1611.464,79.334,1608.138,79.901,1604.875,80.334z M1609.799,76.239c-0.149,0.302-0.346,1.045-0.353,1.225
	c0.035,0.895-1.388,1.199-1.771,1.231l-0.491,0.017c-0.111,0.003-0.172,0.001-0.215,0.009c-0.13,0.092-0.3,0.203-0.687,0.392
	c-0.097,0.059-0.173,0.146-0.255,0.256c2.679-0.383,5.416-0.857,8.317-1.442c-0.095-0.214-0.168-0.433-0.232-0.626
	c-0.045-0.134-0.106-0.317-0.138-0.365c-0.228-0.41-0.463-0.488-0.79-0.596c-0.274-0.091-0.585-0.192-0.863-0.473
	c-0.121-0.121-0.151-0.307-0.075-0.46c0.095-0.191,0.062-0.602-0.123-0.844c-0.031-0.041-0.062-0.07-0.092-0.091
	c-0.033,0.043-0.072,0.079-0.119,0.11c-0.245,0.16-0.505,0.043-0.659-0.028c-0.006-0.003-0.012-0.006-0.019-0.009
	c-0.075,0.447-0.5,1.275-1.004,1.568C1610.071,76.207,1609.924,76.239,1609.799,76.239z"/>
<path id="ut_1_" fill="#8792A4" d="M1571.73,72.737c-0.285,2.254-0.569,4.509-0.854,6.763c-0.748-0.099-6.647-0.777-6.574-1.19
	c0.49-2.736,0.979-5.472,1.469-8.208c0.814,0.16,1.636,0.296,2.458,0.419c1.542,0.231,1.201,0.385,0.98,1.873
	C1570.049,72.508,1570.889,72.623,1571.73,72.737"/>
<path fill="#FFFFFF" d="M1570.875,79.9c-0.018,0-0.035-0.002-0.053-0.004l-0.402-0.051c-5.598-0.691-6.224-0.979-6.429-1.256
	c-0.064-0.088-0.104-0.242-0.084-0.351l1.469-8.208c0.019-0.105,0.079-0.199,0.168-0.26c0.088-0.061,0.198-0.081,0.303-0.062
	c0.81,0.159,1.624,0.294,2.44,0.416c0.753,0.113,1.15,0.221,1.368,0.527c0.221,0.312,0.151,0.678,0.056,1.184
	c-0.013,0.068-0.026,0.14-0.041,0.217l2.113,0.288c0.218,0.029,0.371,0.229,0.343,0.446l-0.854,6.763
	c-0.013,0.106-0.068,0.202-0.152,0.267C1571.049,79.871,1570.963,79.9,1570.875,79.9z M1564.74,78.129
	c0.435,0.147,1.781,0.429,5.779,0.923l0.01,0.002l0.755-5.974l-2.129-0.29c-0.106-0.015-0.202-0.07-0.266-0.156
	c-0.064-0.086-0.092-0.193-0.076-0.299c0.037-0.251,0.077-0.465,0.112-0.647c0.045-0.239,0.097-0.511,0.072-0.581
	c-0.054-0.048-0.335-0.116-0.829-0.19c-0.693-0.104-1.387-0.217-2.076-0.346L1564.74,78.129z"/>
<path id="tx_1_" fill="#8792A4" d="M1591.72,91.461c0.215,1.907-1.288,0.903-1.722,1.522c-0.269,0.384-1.835,2.339-2.16,2.021
	c-0.518,0.262-1.388,0.895-1.45,1.455c-0.102,0.916,0.204,2.072,0.023,2.91c-1.247-0.404-3.067-0.715-3.203-2.341
	c-0.093-1.121-1.844-3.757-2.797-4.319c-0.845-0.5-1.696-0.202-2.229,0.555c-0.584,0.83-0.936,0.297-1.695-0.283
	c-0.865-0.661-0.735-1.72-1.443-2.457c-0.361-0.377-1.922-1.661-1.854-2.209c1.696,0.195,3.404,0.312,5.107,0.425
	c0.133-2.019,0.296-4.032,0.421-6.051c0.096-1.545-0.209-1.605,1.355-1.518c0.946,0.054,1.893,0.107,2.84,0.112
	c-0.028,0.9-0.056,1.802-0.084,2.702c-0.01,0.334,0.483,1.505,0.863,0.797c0.633,0.407,2.477,1.392,3.064,1.242
	c0.716-0.183,1.037-0.08,1.814-0.229c0.995-0.189,1.365,0.548,2.225,0.502C1591.1,86.282,1591.655,91.018,1591.72,91.461
	C1591.721,91.47,1591.681,91.199,1591.72,91.461z"/>
<path fill="#FFFFFF" d="M1586.411,99.771c-0.041,0-0.083-0.007-0.123-0.02c-0.155-0.051-0.32-0.1-0.489-0.149
	c-1.202-0.357-2.849-0.848-2.989-2.539c-0.078-0.947-1.731-3.495-2.602-4.008c-0.618-0.365-1.261-0.185-1.698,0.44
	c-0.181,0.257-0.472,0.598-0.914,0.598c-0.38,0-0.683-0.25-1.034-0.538c-0.098-0.081-0.203-0.168-0.318-0.255
	c-0.562-0.431-0.771-0.997-0.956-1.496c-0.138-0.374-0.268-0.727-0.532-1.002c-0.072-0.075-0.194-0.188-0.341-0.323
	c-1.128-1.045-1.688-1.674-1.623-2.212c0.027-0.218,0.226-0.377,0.443-0.349c1.523,0.176,3.036,0.286,4.689,0.396
	c0.051-0.753,0.105-1.506,0.16-2.259c0.082-1.13,0.164-2.26,0.233-3.391c0.016-0.247,0.021-0.454,0.024-0.629
	c0.017-0.721,0.03-1.29,1.088-1.29c0.175,0,0.393,0.011,0.665,0.026c0.926,0.053,1.883,0.106,2.819,0.111
	c0.108,0.001,0.211,0.045,0.286,0.123c0.075,0.077,0.115,0.182,0.111,0.29l-0.084,2.702c0.002,0.106,0.096,0.356,0.188,0.511
	c0.048-0.041,0.104-0.073,0.158-0.088c0.108-0.028,0.24-0.035,0.334,0.025c0.738,0.475,2.195,1.193,2.708,1.193
	c0.463-0.11,0.767-0.128,1.062-0.146c0.233-0.014,0.479-0.027,0.817-0.092c0.678-0.132,1.124,0.089,1.503,0.273
	c0.258,0.125,0.508,0.214,0.75,0.223c0.488,0,0.673,0.1,1.309,5.054l0.059,0.447v0.001c0,0,0,0,0,0.001v0.001l0,0
	c0.001,0.005,0.001,0.009,0.002,0.013l0,0c0.069,0.616-0.013,1.037-0.26,1.326c-0.304,0.356-0.74,0.376-1.091,0.392
	c-0.168,0.008-0.398,0.019-0.44,0.079c-0.016,0.022-1.607,2.227-2.395,2.227c-0.016,0-0.031-0.001-0.049-0.004
	c-0.519,0.294-1.065,0.779-1.098,1.068c-0.042,0.38-0.004,0.835,0.032,1.274c0.047,0.571,0.096,1.163-0.016,1.676
	c-0.023,0.111-0.093,0.206-0.191,0.263C1586.55,99.752,1586.481,99.771,1586.411,99.771z M1579.567,92.063
	c0.356,0,0.709,0.102,1.049,0.303c1.017,0.6,2.884,3.33,2.991,4.63c0.089,1.064,1.06,1.434,2.421,1.838
	c0.014,0.005,0.027,0.009,0.041,0.013c0.009-0.306-0.02-0.647-0.049-1.003c-0.039-0.478-0.079-0.972-0.029-1.428
	c0.087-0.776,1.129-1.496,1.668-1.769c0.098-0.047,0.208-0.056,0.306-0.022c0.314-0.168,1.337-1.343,1.706-1.871
	c0.269-0.383,0.708-0.403,1.061-0.419c0.217-0.01,0.44-0.021,0.519-0.112c0.04-0.046,0.125-0.204,0.078-0.674
	c-0.019-0.064-0.023-0.128-0.022-0.18l-0.042-0.315c-0.371-2.894-0.581-3.993-0.698-4.366c-0.393-0.038-0.668-0.171-0.915-0.291
	c-0.325-0.157-0.593-0.285-1.004-0.208c-0.381,0.073-0.658,0.09-0.922,0.105c-0.279,0.017-0.521,0.03-0.869,0.119
	c-0.073,0.019-0.151,0.027-0.238,0.027c-0.752,0-2.172-0.748-2.848-1.143c-0.276,0.193-0.509,0.222-0.849-0.128
	c-0.288-0.297-0.501-0.886-0.491-1.195l0.071-2.296c-0.823-0.015-1.648-0.062-2.45-0.107c-0.597-0.035-0.892-0.006-0.908,0.001
	c0.011,0.023,0.005,0.267,0,0.482c-0.005,0.184-0.01,0.401-0.025,0.659c-0.07,1.134-0.152,2.267-0.234,3.399
	c-0.064,0.884-0.129,1.769-0.187,2.653c-0.007,0.105-0.056,0.204-0.136,0.274s-0.182,0.095-0.29,0.099
	c-1.56-0.104-2.988-0.202-4.412-0.349c0.332,0.389,0.874,0.892,1.101,1.101c0.161,0.149,0.295,0.273,0.374,0.356
	c0.38,0.396,0.553,0.864,0.706,1.278c0.168,0.455,0.312,0.848,0.691,1.138c0.123,0.094,0.235,0.187,0.34,0.272
	c0.193,0.159,0.434,0.356,0.526,0.356c0.021,0,0.111-0.048,0.26-0.259C1578.289,92.417,1578.913,92.063,1579.567,92.063z"/>
<path id="tn_1_" fill="#8792A4" d="M1596.397,83.028c0.145-0.46,0.29-1.685,0.6-1.954c0.277-0.41,1.999,0.043,1.975-0.405
	c-0.008-0.133,7.59-0.964,8.52-1.093c-0.158,0.792-3.24,3.196-3.812,3.269c-2.511,0.317-5.031,0.555-7.556,0.75
	C1596.207,83.444,1596.39,83.203,1596.397,83.028z"/>
<path fill="#FFFFFF" d="M1596.122,83.995c-0.136,0-0.263-0.069-0.337-0.185c-0.079-0.124-0.084-0.282-0.013-0.411l0.085-0.139
	c0.045-0.072,0.13-0.208,0.141-0.261c0.058-0.221,0.097-0.416,0.143-0.632c0.159-0.764,0.286-1.292,0.556-1.562
	c0.239-0.297,0.692-0.323,1.139-0.323l0.458,0.004c0.149,0,0.245-0.005,0.306-0.012c0.168-0.281,1.175-0.398,6.779-1.051
	c1.003-0.116,1.796-0.209,2.058-0.245c0.128-0.013,0.257,0.027,0.346,0.122s0.127,0.226,0.102,0.353
	c-0.194,0.971-3.414,3.493-4.154,3.587c-2.277,0.288-4.756,0.534-7.575,0.752C1596.143,83.994,1596.132,83.995,1596.122,83.995z
	 M1596.791,83.105c-0.002,0.012-0.004,0.023-0.006,0.035c2.522-0.203,4.768-0.431,6.844-0.692c0.452-0.104,2.233-1.493,3.055-2.37
	c-0.341,0.04-0.755,0.088-1.213,0.142c-1.934,0.225-5.409,0.629-6.206,0.78c-0.013,0.017-0.026,0.033-0.041,0.049
	c-0.209,0.221-0.56,0.238-0.931,0.238l-0.458-0.004c-0.406,0-0.517,0.038-0.546,0.055c-0.151,0.17-0.296,0.861-0.366,1.193
	C1596.877,82.755,1596.833,82.959,1596.791,83.105z"/>
<path id="sd_1_" fill="#8792A4" d="M1578.68,65.006c-0.078,1.135-0.188,2.128-0.269,3.27c-0.13,1.863-0.099,1.717,1.705,1.813
	c2.716,0.146,5.174,0.039,7.521,1.039c-0.4-1.073-0.021-2.264-0.029-3.468c-0.006-0.849-0.651-1.814-0.134-2.352
	C1584.535,65.294,1581.612,65.195,1578.68,65.006z"/>
<path fill="#FFFFFF" d="M1587.637,71.528c-0.053,0-0.106-0.011-0.157-0.032c-1.855-0.791-3.837-0.866-5.936-0.945
	c-0.475-0.018-0.958-0.036-1.449-0.062l-0.366-0.019c-0.787-0.037-1.221-0.057-1.511-0.383c-0.309-0.347-0.274-0.846-0.206-1.839
	c0.04-0.565,0.087-1.094,0.134-1.621c0.048-0.538,0.096-1.075,0.135-1.648c0.016-0.22,0.215-0.367,0.425-0.372
	c2.873,0.186,5.823,0.287,8.771,0.302c0.16,0.001,0.305,0.098,0.366,0.245c0.062,0.147,0.031,0.317-0.08,0.433
	c-0.159,0.165-0.085,0.493,0.056,1.015c0.093,0.341,0.188,0.693,0.19,1.057c0.002,0.427-0.04,0.844-0.081,1.248
	c-0.076,0.75-0.148,1.458,0.085,2.083c0.056,0.149,0.017,0.318-0.099,0.429C1587.837,71.489,1587.738,71.528,1587.637,71.528z
	 M1579.05,65.43c-0.033,0.434-0.07,0.851-0.107,1.269c-0.047,0.522-0.093,1.046-0.132,1.605c-0.038,0.541-0.08,1.156,0.005,1.252
	c0.065,0.073,0.536,0.096,0.951,0.115l0.371,0.019c0.487,0.026,0.966,0.044,1.437,0.062c1.916,0.072,3.737,0.141,5.506,0.736
	c-0.062-0.554-0.005-1.115,0.051-1.664c0.039-0.383,0.079-0.771,0.076-1.161c-0.001-0.26-0.083-0.562-0.162-0.854
	c-0.097-0.357-0.2-0.744-0.165-1.104C1584.25,65.681,1581.62,65.589,1579.05,65.43z"/>
<path id="sc_1_" fill="#8792A4" d="M1609.803,87.044c-0.639-0.511-1.362-1.439-1.85-2.131c-0.499-0.476-2.602-1.764-1.984-2.382
	c0.347-0.611,3.118-1.114,3.199-0.197c0.476,0.034,1.048-0.338,1.511-0.24c0.56,0.119,1.308,0.934,1.781,1.271
	c-0.731,0.737-0.979,2.794-2.366,2.823c0.164,0.022,0.23,0.12,0.199,0.292c-0.169,0.154-0.338,0.099-0.505-0.167
	C1610.171,86.676,1609.892,86.682,1609.803,87.044"/>
<path fill="#FFFFFF" d="M1609.804,87.444c-0.09,0-0.178-0.03-0.25-0.088c-0.732-0.585-1.522-1.638-1.928-2.213
	c-0.055-0.042-0.239-0.182-0.453-0.345c-0.946-0.724-1.673-1.327-1.715-1.95c-0.014-0.212,0.053-0.405,0.192-0.563
	c0.378-0.558,1.664-0.854,2.478-0.854c0.77,0,1.13,0.238,1.298,0.48c0.107-0.021,0.218-0.054,0.331-0.088
	c0.322-0.095,0.685-0.188,1.005-0.121c0.488,0.104,1.002,0.551,1.456,0.945c0.175,0.151,0.337,0.294,0.475,0.393
	c0.096,0.067,0.156,0.175,0.166,0.291c0.01,0.117-0.032,0.232-0.114,0.316c-0.205,0.206-0.385,0.586-0.575,0.988
	c-0.329,0.695-0.723,1.526-1.472,1.833c-0.002,0.026-0.006,0.055-0.011,0.083c-0.016,0.086-0.06,0.165-0.124,0.224
	c-0.094,0.086-0.187,0.135-0.271,0.161c-0.011,0.02-0.021,0.037-0.03,0.053c-0.032,0.054-0.056,0.093-0.069,0.149
	c-0.032,0.133-0.13,0.239-0.259,0.284C1609.891,87.437,1609.848,87.444,1609.804,87.444z M1608.128,82.231
	c-0.837,0-1.7,0.333-1.812,0.499c-0.014,0.021-0.046,0.065-0.063,0.083c0.003,0.275,1.06,1.084,1.407,1.35
	c0.242,0.186,0.449,0.346,0.57,0.46c0.429,0.602,0.839,1.115,1.201,1.511c0.024-0.049,0.06-0.093,0.104-0.13
	c0.08-0.065,0.173-0.092,0.276-0.09c0.068-0.075,0.164-0.123,0.274-0.126c0.614-0.013,0.938-0.6,1.36-1.494
	c0.146-0.311,0.288-0.609,0.455-0.863c-0.067-0.058-0.137-0.117-0.207-0.18c-0.343-0.298-0.812-0.705-1.098-0.766
	c-0.236-0.018-0.414,0.047-0.611,0.105c-0.242,0.071-0.492,0.146-0.753,0.146c-0.207,0-0.443-0.161-0.462-0.367
	C1608.752,82.338,1608.592,82.231,1608.128,82.231z"/>
<path id="ri_1_" fill="#8792A4" d="M1618.317,69.018C1619.283,68.308,1617.953,66.82,1618.317,69.018"/>
<path fill="#FFFFFF" d="M1618.317,69.418c-0.051,0-0.103-0.01-0.151-0.03c-0.128-0.052-0.221-0.168-0.243-0.305
	c-0.161-0.972-0.01-1.284,0.118-1.436c0.076-0.09,0.271-0.185,0.388-0.185c0.261,0,0.487,0.198,0.592,0.518
	c0.124,0.379,0.076,0.962-0.467,1.359C1618.484,69.392,1618.401,69.418,1618.317,69.418z"/>
<path id="pa_1_" fill="#8792A4" d="M1614.909,72.175c0.113-0.113,0.216-0.236,0.308-0.368c-0.709-0.384-1.086-1.356-0.412-1.966
	c-0.913-1.181-1.991-0.664-3.299-0.389c-0.76,0.16-3.096,0.981-3.224,0.17c-1.532,0.653-0.416,3.128-0.188,4.429
	C1610.159,73.677,1613.492,73.595,1614.909,72.175"/>
<path fill="#FFFFFF" d="M1608.095,74.451c-0.081,0-0.161-0.025-0.229-0.072c-0.088-0.061-0.147-0.154-0.165-0.259
	c-0.047-0.263-0.131-0.575-0.221-0.911c-0.374-1.394-0.886-3.303,0.645-3.955c0.115-0.048,0.242-0.041,0.352,0.019
	c0.104,0.058,0.178,0.16,0.199,0.277c0.006-0.015,0.092,0.025,0.286,0.025c0.518-0.001,1.305-0.212,1.879-0.366
	c0.233-0.063,0.437-0.117,0.582-0.148c0.195-0.041,0.385-0.087,0.569-0.133c0.479-0.117,0.932-0.229,1.381-0.229
	c0.71,0,1.281,0.294,1.748,0.896c0.128,0.166,0.106,0.401-0.048,0.542c-0.17,0.153-0.242,0.341-0.217,0.557
	c0.036,0.296,0.257,0.602,0.551,0.761c0.1,0.054,0.172,0.148,0.198,0.259c0.026,0.111,0.005,0.228-0.061,0.321
	c-0.105,0.151-0.223,0.293-0.353,0.423c-1.196,1.197-3.484,1.498-5.504,1.764c-0.547,0.072-1.065,0.14-1.522,0.223
	C1608.143,74.448,1608.118,74.451,1608.095,74.451z M1608.172,70.165c-0.494,0.482-0.268,1.537,0.081,2.837
	c0.056,0.207,0.108,0.405,0.153,0.591c0.367-0.058,0.766-0.11,1.179-0.164c1.799-0.236,4.037-0.531,5.041-1.536
	c0.004-0.004,0.008-0.008,0.012-0.013c-0.315-0.291-0.526-0.682-0.575-1.09c-0.041-0.341,0.034-0.664,0.213-0.941
	c-0.509-0.478-1.22-0.357-2.093-0.144c-0.192,0.047-0.391,0.096-0.595,0.139c-0.135,0.028-0.322,0.079-0.539,0.138
	c-0.618,0.166-1.464,0.394-2.087,0.394C1608.581,70.375,1608.333,70.286,1608.172,70.165z"/>
<path id="or_1_" fill="#8792A4" d="M1555.725,60.452c-0.465,2.123-2.739,4.815-2.292,6.772c2.89,0.769,5.765,1.543,8.689,2.168
	c0.231-1.109,0.725-2.376,0.823-3.48c0.05-0.543-0.287-0.537,0.308-1.198c0.816-0.906,0.454-1.05,0.422-1.928
	c-0.916-0.969-3.915-0.234-4.96-0.607c-0.571-0.205-1.883,0.033-1.812-0.823C1556.964,60.598,1555.957,60.61,1555.725,60.452"/>
<path fill="#FFFFFF" d="M1562.122,69.793c-0.028,0-0.056-0.003-0.084-0.009c-2.767-0.593-5.535-1.328-8.212-2.04l-0.496-0.132
	c-0.144-0.038-0.254-0.152-0.287-0.298c-0.304-1.328,0.467-2.865,1.212-4.352c0.467-0.931,0.907-1.811,1.079-2.596
	c0.028-0.13,0.119-0.237,0.242-0.287c0.124-0.049,0.266-0.034,0.373,0.041c0.033,0.015,0.104,0.029,0.186,0.05
	c0.371,0.097,1.239,0.323,1.166,1.217c-0.012,0.143,0.064,0.218,0.807,0.287c0.271,0.025,0.526,0.05,0.742,0.127
	c0.26,0.093,0.757,0.093,0.92,0.093c0.252,0,0.524-0.009,0.805-0.018c0.307-0.01,0.622-0.021,0.932-0.021
	c0.91,0,1.914,0.078,2.46,0.655c0.066,0.07,0.105,0.163,0.108,0.26c0.008,0.205,0.036,0.366,0.06,0.506
	c0.094,0.551,0.116,0.928-0.584,1.704c-0.271,0.302-0.263,0.346-0.239,0.463c0.022,0.115,0.055,0.274,0.033,0.504
	c-0.064,0.718-0.281,1.483-0.492,2.225c-0.126,0.444-0.251,0.885-0.338,1.302c-0.021,0.104-0.084,0.195-0.174,0.253
	C1562.275,69.771,1562.199,69.793,1562.122,69.793z M1553.785,66.905l0.246,0.065c2.543,0.676,5.169,1.374,7.789,1.947
	c0.078-0.314,0.17-0.638,0.262-0.964c0.2-0.705,0.407-1.435,0.465-2.077c0.011-0.116-0.004-0.188-0.021-0.277
	c-0.074-0.375-0.028-0.644,0.43-1.153c0.477-0.528,0.457-0.646,0.391-1.034c-0.021-0.127-0.046-0.269-0.06-0.437
	c-0.395-0.283-1.192-0.318-1.78-0.318c-0.301,0-0.607,0.01-0.905,0.02c-0.289,0.009-0.57,0.018-0.831,0.018
	c-0.553,0-0.919-0.043-1.189-0.139c-0.121-0.044-0.338-0.064-0.548-0.084c-0.562-0.053-1.61-0.151-1.528-1.149
	c0.013-0.157-0.063-0.238-0.501-0.358c-0.233,0.764-0.639,1.571-1.033,2.357C1554.337,64.584,1553.685,65.887,1553.785,66.905z"/>
<path id="ok_1_" fill="#8792A4" d="M1590.444,83.209c0.007,1.003,0.014,2.006,0.02,3.009c-0.578-0.429-1.183-0.558-1.893-0.422
	c-0.777,0.148-1.099,0.047-1.814,0.229c-0.588,0.149-2.432-0.836-3.064-1.243c-0.38,0.709-0.874-0.462-0.863-0.797
	c0.028-0.9,0.056-1.801,0.084-2.702c-1.347-0.006-2.691-0.103-4.035-0.179c-0.047-0.216-0.021-0.646,0.053-0.854
	c2.188,0.147,4.393,0.25,6.586,0.25c1.178,0,2.356,0.011,3.535-0.011c0.844-0.017,1.074-0.261,1.096,0.604
	C1590.164,81.809,1590.412,82.491,1590.444,83.209z"/>
<path fill="#FFFFFF" d="M1590.463,86.618c-0.084,0-0.168-0.027-0.238-0.079c-0.489-0.363-0.984-0.465-1.579-0.351
	c-0.38,0.073-0.657,0.09-0.92,0.104c-0.28,0.017-0.522,0.031-0.871,0.12c-0.701,0.179-2.331-0.677-3.085-1.116
	c-0.28,0.193-0.51,0.223-0.852-0.129c-0.288-0.297-0.5-0.887-0.489-1.194l0.071-2.295c-0.976-0.017-1.955-0.075-2.906-0.132
	l-0.739-0.043c-0.18-0.01-0.33-0.139-0.368-0.314c-0.063-0.291-0.032-0.792,0.066-1.072c0.06-0.169,0.22-0.268,0.404-0.267
	c2.521,0.17,4.604,0.249,6.559,0.249l1.768,0.003c0.587,0,1.174-0.003,1.761-0.014c0.161-0.003,0.3-0.015,0.417-0.025
	c0.116-0.011,0.216-0.019,0.3-0.019c0.76,0,0.777,0.702,0.785,1.039c0.009,0.334,0.073,0.667,0.143,1.02
	c0.067,0.349,0.138,0.71,0.154,1.088l0.021,3.024c0.001,0.151-0.084,0.29-0.22,0.358
	C1590.587,86.604,1590.525,86.618,1590.463,86.618z M1583.73,84.4c0.064,0,0.127,0.013,0.179,0.046
	c0.739,0.476,2.196,1.194,2.708,1.194c0.464-0.11,0.769-0.129,1.063-0.146c0.232-0.014,0.479-0.027,0.815-0.092
	c0.568-0.108,1.081-0.068,1.563,0.127l-0.015-2.288c-0.014-0.335-0.076-0.65-0.141-0.985c-0.072-0.37-0.146-0.752-0.156-1.153
	c-0.004-0.127-0.012-0.207-0.019-0.256c-0.071,0.001-0.131,0.007-0.197,0.013c-0.133,0.012-0.289,0.025-0.473,0.029
	c-0.592,0.011-1.184,0.013-1.775,0.013l-1.768-0.002c-1.879,0-3.875-0.073-6.256-0.228c-0.002,0.018-0.003,0.035-0.004,0.053
	l0.385,0.023c1.074,0.063,2.185,0.13,3.273,0.134c0.107,0.001,0.211,0.045,0.286,0.123c0.075,0.077,0.115,0.182,0.111,0.29
	l-0.084,2.703c0.002,0.106,0.096,0.356,0.188,0.511c0.048-0.041,0.103-0.074,0.158-0.088
	C1583.623,84.409,1583.677,84.4,1583.73,84.4z"/>
<path id="oh_1_" fill="#8792A4" d="M1603.865,71.237c1.45,1.018,2.399-0.472,3.573-0.979c0.459,2.671,0.154,4.508-1.635,6.429
	c-0.603-0.669-1.718,0.198-2.19-0.422c-0.137-0.179-0.89-0.466-0.884-0.415c-0.062-0.524-0.124-1.048-0.186-1.571
	c-0.105-0.888-0.21-1.775-0.314-2.663C1602.208,71.445,1603.58,71.296,1603.865,71.237"/>
<path fill="#FFFFFF" d="M1605.802,77.087c-0.001,0-0.002,0-0.004,0c-0.112-0.001-0.219-0.05-0.294-0.133
	c-0.063-0.071-0.155-0.137-0.39-0.137c-0.142,0-0.287,0.021-0.431,0.04c-0.603,0.082-1.104,0.024-1.39-0.351
	c-0.066-0.057-0.414-0.211-0.566-0.257c-0.2-0.001-0.372-0.15-0.396-0.354v-0.001l0,0l-0.501-4.233
	c-0.059-0.516,0.539-0.604,1.626-0.765c0.146-0.021,0.265-0.039,0.328-0.052c0.107-0.023,0.22,0.001,0.31,0.064
	c0.764,0.533,1.414,0.135,2.146-0.386c0.327-0.232,0.665-0.473,1.038-0.634c0.113-0.048,0.241-0.043,0.35,0.016
	s0.183,0.163,0.204,0.284c0.426,2.486,0.294,4.589-1.737,6.769C1606.019,77.04,1605.913,77.087,1605.802,77.087z M1605.115,76.018
	c0.242,0,0.451,0.043,0.632,0.132c1.288-1.494,1.685-2.992,1.383-5.266c-0.14,0.09-0.281,0.19-0.426,0.293
	c-0.56,0.397-1.139,0.809-1.854,0.809c-0.36,0-0.721-0.11-1.073-0.327c-0.06,0.009-0.129,0.02-0.204,0.03
	c-0.216,0.032-0.653,0.097-0.915,0.158l0.437,3.685c0.308,0.111,0.698,0.31,0.836,0.49c0.025,0.033,0.062,0.081,0.25,0.081
	c0.125,0,0.26-0.02,0.396-0.038C1604.756,76.041,1604.938,76.018,1605.115,76.018z"/>
<path id="ny_2_" fill="#8792A4" d="M1616.003,67.101c-0.155,1.23,0.623,2.535-0.062,3.501c-0.049-0.251-0.194-0.696-0.194-0.911
	c0.053,0.115,0.162,0.377,0.183,0.516c-1.008-0.286-1.425-0.57-2.156-1.251c-0.707-0.17-2.335,0.519-3.035,0.656
	c-0.608,0.12-2.404,0.814-2.457,0.011c-0.023-0.37,1.377-0.937,0.818-1.495c0.264-0.359-0.857-0.33,0.559-0.706
	c0.519-0.314,3.426,0.111,2.214-1.65c0.583-1.398,1.38-1.918,2.853-2.291C1614.993,63.412,1615.912,66.689,1616.003,67.101"/>
<path fill="#FFFFFF" d="M1615.942,71.002c-0.028,0-0.057-0.003-0.084-0.01c-0.157-0.033-0.278-0.157-0.309-0.314
	c-0.011-0.053-0.025-0.115-0.043-0.183c-0.834-0.271-1.285-0.587-1.916-1.164c-0.022-0.002-0.048-0.003-0.078-0.003
	c-0.449,0-1.187,0.23-1.778,0.416c-0.361,0.113-0.688,0.215-0.918,0.26c-0.111,0.021-0.265,0.064-0.44,0.113
	c-0.463,0.128-1.039,0.287-1.507,0.287c-0.869,0-0.974-0.579-0.985-0.757c-0.022-0.339,0.252-0.575,0.543-0.825
	c0.135-0.115,0.385-0.33,0.407-0.426c-0.082-0.083-0.127-0.188-0.126-0.293c-0.106-0.1-0.217-0.249-0.172-0.465
	c0.068-0.321,0.414-0.442,0.978-0.593c0.22-0.106,0.539-0.137,0.934-0.175c0.393-0.038,1.21-0.116,1.311-0.33
	c0.023-0.052,0.006-0.225-0.214-0.544c-0.077-0.111-0.093-0.255-0.04-0.381c0.676-1.621,1.657-2.153,3.123-2.524
	c0.032-0.008,0.074-0.014,0.107-0.014c0.781,0,1.625,3.775,1.66,3.937c0.01,0.044,0.012,0.09,0.006,0.136
	c-0.054,0.428,0.026,0.898,0.104,1.353c0.135,0.792,0.274,1.611-0.235,2.33C1616.192,70.94,1616.07,71.002,1615.942,71.002z
	 M1608.756,69.599c0.028,0.003,0.065,0.006,0.112,0.006c0.359,0,0.899-0.149,1.294-0.259c0.199-0.055,0.373-0.102,0.499-0.127
	c0.209-0.041,0.505-0.135,0.833-0.237c0.835-0.263,1.806-0.55,2.372-0.415c0.066,0.016,0.128,0.049,0.179,0.096
	c0.507,0.472,0.832,0.726,1.314,0.928c0.037-0.143,0.152-0.258,0.303-0.29c0.051-0.012,0.103-0.013,0.149-0.004
	c-0.021-0.208-0.058-0.428-0.097-0.659c-0.083-0.488-0.169-0.993-0.117-1.513c-0.145-0.607-0.737-2.605-1.022-3.202
	c-1.188,0.335-1.788,0.805-2.251,1.813c0.258,0.441,0.31,0.817,0.157,1.144c-0.293,0.629-1.217,0.717-1.958,0.789
	c-0.243,0.022-0.574,0.055-0.661,0.098c-0.023,0.012-0.075,0.035-0.101,0.042c-0.098,0.026-0.18,0.049-0.246,0.068
	c0.019,0.061,0.024,0.118,0.022,0.171c0.08,0.146,0.098,0.283,0.094,0.387c-0.017,0.422-0.371,0.727-0.685,0.995
	C1608.89,69.479,1608.815,69.543,1608.756,69.599z"/>
<path id="long_island_1_" fill="#8792A4" d="M1616.16,70.486c-0.029,0.053-0.383,0.268-0.2,0.373
	c0.797-0.184,1.782-0.751,2.353-1.365c-0.124,0.082-0.621,0.411-0.761,0.429c0.107-0.156,0.2-0.32,0.28-0.493
	C1617.418,69.878,1616.422,69.994,1616.16,70.486z"/>
<path fill="#FFFFFF" d="M1615.96,71.26c-0.069,0-0.139-0.019-0.2-0.054c-0.112-0.065-0.238-0.25-0.25-0.379
	c-0.025-0.284,0.191-0.469,0.321-0.58c0.184-0.339,0.616-0.527,1.034-0.71c0.266-0.115,0.541-0.235,0.673-0.379
	c0.134-0.144,0.352-0.169,0.516-0.062c0.022,0.015,0.043,0.031,0.061,0.05c0.166-0.092,0.377-0.058,0.502,0.09
	c0.132,0.154,0.127,0.382-0.011,0.53c-0.621,0.669-1.673,1.279-2.556,1.482C1616.021,71.256,1615.99,71.26,1615.96,71.26z"/>
<path id="nv_2_" fill="#8792A4" d="M1563.039,81.136c-0.079,0.187-0.132,0.381-0.156,0.583c-1.709-2.521-3.433-5.032-5.155-7.544
	c-0.661-0.963-0.156-1.831,0.11-2.931c0.209-0.861,0.418-1.724,0.627-2.586c0.047-0.193,1.722,0.312,1.989,0.374
	c1.208,0.284,2.431,0.531,3.648,0.767c1.934,0.374,1.674,0.266,1.335,2.16c-0.35,1.952-0.698,3.905-1.048,5.857
	c-0.113,0.635-0.065,1.554-0.412,2.074c-0.33,0.495-0.376-0.285-0.771-0.1C1562.856,79.957,1563.087,80.861,1563.039,81.136
	C1563,81.365,1563.061,81.011,1563.039,81.136z"/>
<path fill="#FFFFFF" d="M1562.883,82.119c-0.131,0-0.256-0.064-0.331-0.176c-1.632-2.407-3.277-4.806-4.923-7.204l-0.231-0.338
	c-0.633-0.924-0.374-1.788-0.124-2.623c0.061-0.202,0.123-0.41,0.176-0.629l0.627-2.585c0.02-0.082,0.116-0.351,0.522-0.351
	c0.345,0,1.022,0.178,1.687,0.359c0.12,0.033,0.213,0.059,0.26,0.069c1.284,0.303,2.558,0.556,3.634,0.764l0.162,0.031
	c0.931,0.179,1.355,0.261,1.593,0.614c0.222,0.329,0.144,0.723,0.014,1.373c-0.035,0.175-0.075,0.375-0.116,0.604l-1.048,5.857
	c-0.032,0.182-0.05,0.388-0.069,0.601c-0.049,0.552-0.105,1.178-0.403,1.625c-0.058,0.086-0.23,0.346-0.536,0.346
	c-0.16,0-0.279-0.07-0.366-0.146c-0.001,0.139,0.013,0.306,0.021,0.406c0.015,0.18,0.026,0.335,0.009,0.462h0.001
	c-0.001,0.003-0.001,0.006-0.002,0.008c0,0.002,0,0.004-0.001,0.006c0,0.003-0.001,0.007-0.001,0.01
	c-0.003,0.014-0.006,0.026-0.009,0.04c-0.009,0.032-0.021,0.064-0.037,0.097c-0.055,0.138-0.091,0.281-0.108,0.427
	c-0.021,0.166-0.141,0.302-0.304,0.341C1562.946,82.115,1562.914,82.119,1562.883,82.119z M1558.785,69.033l-0.559,2.306
	c-0.057,0.231-0.122,0.453-0.187,0.669c-0.255,0.851-0.38,1.361,0.018,1.94l0.231,0.338c1.446,2.108,2.893,4.217,4.329,6.331
	c-0.03-0.447-0.021-0.98,0.417-1.188c0.262-0.123,0.533-0.046,0.687,0.072c0.126-0.312,0.163-0.719,0.195-1.086
	c0.021-0.237,0.043-0.468,0.079-0.67l1.048-5.857c0.042-0.236,0.083-0.441,0.119-0.62c0.067-0.34,0.138-0.69,0.104-0.775
	c-0.077-0.077-0.563-0.171-1.078-0.271l-0.163-0.031c-1.083-0.209-2.366-0.465-3.664-0.77c-0.052-0.013-0.154-0.04-0.288-0.077
	C1559.776,69.264,1559.146,69.091,1558.785,69.033z"/>
<path id="nm_2_" fill="#8792A4" d="M1575.668,88.544c-0.827-0.068-1.654-0.134-2.479-0.229c-0.034,0.283,0.097,0.217,0.218,0.395
	c-0.889-0.096-2.666-0.838-2.537,0.49c-0.328,0.027-0.892-0.039-1.203-0.145c0.331-2.617,0.662-5.233,0.993-7.851
	c0.109-0.864-0.169-1.75,0.788-1.637c1.201,0.142,2.402,0.28,3.606,0.391c0.967,0.089,1.935,0.171,2.903,0.231
	c1.341,0.083,0.883,0.512,0.817,1.57c-0.144,2.328-0.325,4.652-0.479,6.979C1577.419,88.682,1576.544,88.622,1575.668,88.544z"/>
<path fill="#FFFFFF" d="M1570.706,89.605c-0.38,0-0.871-0.072-1.167-0.172c-0.181-0.061-0.294-0.24-0.27-0.429l0.993-7.851
	c0.023-0.19,0.027-0.381,0.03-0.561c0.012-0.537,0.03-1.437,1-1.437c0.062,0,0.129,0.004,0.202,0.013
	c1.196,0.142,2.395,0.279,3.595,0.39c0.964,0.089,1.928,0.17,2.893,0.23c0.454,0.028,0.907,0.097,1.151,0.402
	c0.233,0.294,0.175,0.646,0.113,1.018c-0.027,0.164-0.06,0.354-0.073,0.574c-0.083,1.337-0.178,2.672-0.272,4.007
	c-0.07,0.991-0.141,1.982-0.206,2.975c-0.015,0.221-0.2,0.382-0.426,0.373c-0.88-0.058-1.758-0.118-2.637-0.196l-0.216-0.018
	c-0.539-0.045-1.079-0.089-1.617-0.143c-0.009,0.046-0.025,0.091-0.051,0.133c-0.08,0.133-0.217,0.212-0.386,0.191
	c-0.203-0.021-0.449-0.074-0.71-0.131c-0.344-0.075-0.733-0.159-1.027-0.159c-0.239,0-0.308,0.055-0.322,0.071
	c-0.036,0.039-0.049,0.141-0.036,0.272c0.01,0.107-0.022,0.213-0.092,0.295c-0.068,0.083-0.167,0.134-0.273,0.143
	C1570.843,89.603,1570.777,89.605,1570.706,89.605z M1570.108,88.75c0.122,0.021,0.255,0.037,0.382,0.047
	c0.036-0.175,0.11-0.324,0.222-0.447c0.204-0.225,0.503-0.333,0.915-0.333c0.375,0,0.803,0.092,1.182,0.174
	c0.059-0.177,0.232-0.296,0.427-0.273c0.748,0.087,1.498,0.148,2.248,0.21l0.219,0.019c0.742,0.066,1.481,0.119,2.223,0.168
	c0.058-0.859,0.118-1.719,0.18-2.579c0.095-1.332,0.189-2.665,0.271-3.999c0.016-0.251,0.052-0.469,0.082-0.656
	c0.024-0.147,0.059-0.348,0.041-0.404c0.016,0.015-0.102-0.058-0.565-0.086c-0.974-0.061-1.945-0.144-2.915-0.232
	c-1.208-0.11-2.412-0.25-3.616-0.392c-0.213-0.028-0.292-0.154-0.309,0.646c-0.004,0.206-0.009,0.426-0.037,0.644L1570.108,88.75z"
	/>
<path id="nj_1_" fill="#8792A4" d="M1614.909,72.175c-0.608,1.385,0.192,0.852,0.614,1.729c0.411-0.651,1.167-2.576,0.178-2.72
	c-0.029-0.341,0.423-2.014-0.896-1.344c-0.674,0.61-0.298,1.582,0.412,1.966C1615.125,71.938,1615.023,72.062,1614.909,72.175"/>
<path fill="#FFFFFF" d="M1615.524,74.305c-0.008,0-0.016-0.001-0.023-0.001c-0.145-0.009-0.274-0.095-0.337-0.227
	c-0.106-0.221-0.236-0.304-0.387-0.398c-0.571-0.361-0.628-0.766-0.233-1.665c0.02-0.045,0.048-0.087,0.083-0.122
	c0.004-0.004,0.008-0.008,0.012-0.012c-0.314-0.291-0.525-0.68-0.574-1.088c-0.058-0.476,0.11-0.919,0.473-1.247
	c0.026-0.024,0.056-0.045,0.088-0.061c0.566-0.287,1.002-0.257,1.275,0.047c0.32,0.354,0.264,0.946,0.22,1.382
	c0.154,0.092,0.277,0.229,0.356,0.401c0.401,0.87-0.396,2.457-0.614,2.804C1615.788,74.234,1615.66,74.305,1615.524,74.305z
	 M1615.091,72.938c0.01,0,0.069,0.037,0.113,0.065c0.071,0.045,0.157,0.1,0.247,0.173c0.243-0.559,0.428-1.246,0.298-1.526
	c-0.016-0.036-0.031-0.059-0.105-0.069c-0.047-0.007-0.091-0.021-0.131-0.043c0.045,0.05,0.077,0.11,0.093,0.177
	c0.026,0.111,0.005,0.228-0.061,0.321c-0.09,0.13-0.189,0.252-0.298,0.366C1615.073,72.812,1615.088,72.926,1615.091,72.938
	L1615.091,72.938z M1615.037,70.173c-0.144,0.146-0.204,0.322-0.18,0.523c0.035,0.295,0.256,0.599,0.548,0.758
	c-0.058-0.063-0.095-0.146-0.103-0.235c-0.007-0.078,0.003-0.213,0.02-0.376c0.017-0.164,0.067-0.664-0.018-0.776
	C1615.289,70.082,1615.204,70.093,1615.037,70.173z"/>
<path id="nh_1_" fill="#8792A4" d="M1618.859,66.121c-1.16,1.219-2.53,0.771-2.088-1.007c0.178-0.716,0.093-2.504,0.671-2.869
	C1617.84,63.449,1618.686,65.021,1618.859,66.121z"/>
<path fill="#FFFFFF" d="M1617.555,67.207c-0.392,0-0.734-0.162-0.964-0.455c-0.222-0.283-0.438-0.814-0.208-1.734
	c0.048-0.193,0.076-0.512,0.107-0.849c0.085-0.937,0.173-1.905,0.737-2.262c0.106-0.066,0.233-0.08,0.349-0.039
	c0.116,0.042,0.206,0.135,0.245,0.252c0.148,0.45,0.362,0.954,0.579,1.464c0.363,0.859,0.739,1.747,0.854,2.476
	c0.019,0.122-0.021,0.247-0.105,0.337C1618.651,66.919,1618.085,67.207,1617.555,67.207z M1617.403,63.274
	c-0.059,0.337-0.093,0.72-0.115,0.967c-0.034,0.368-0.065,0.716-0.128,0.97c-0.116,0.467-0.094,0.849,0.062,1.048
	c0.215,0.273,0.739,0.145,1.205-0.274c-0.134-0.603-0.453-1.356-0.763-2.088C1617.576,63.69,1617.488,63.481,1617.403,63.274z"/>
<path id="ne_1_" fill="#8792A4" d="M1588.527,74.353c0-2.393-1.412-4.054-3.631-4.088c-2.203-0.033-4.405-0.127-6.602-0.299
	c-0.074,1.101-0.148,2.201-0.223,3.302c-0.014,0.2,2.262,0.233,2.51,0.245c-0.029,0.568-0.059,1.137-0.089,1.705
	c2.873,0.146,5.742,0.184,8.617,0.156C1588.925,75.25,1588.535,74.562,1588.527,74.353
	C1588.527,74.261,1588.534,74.554,1588.527,74.353z"/>
<path fill="#FFFFFF" d="M1587.399,75.782c-2.482,0-4.748-0.054-6.927-0.165c-0.106-0.005-0.205-0.053-0.276-0.132
	s-0.108-0.183-0.103-0.289l0.067-1.296c-2.021-0.063-2.223-0.172-2.375-0.34c-0.073-0.08-0.12-0.212-0.113-0.32l0.223-3.302
	c0.008-0.106,0.057-0.205,0.138-0.275c0.081-0.069,0.183-0.105,0.293-0.096c2.086,0.163,4.299,0.263,6.576,0.297
	c2.4,0.037,4.015,1.829,4.025,4.463c0.036,0.156,0.307,0.627,0.417,0.723c0.146,0.098,0.204,0.275,0.154,0.443
	c-0.051,0.168-0.21,0.279-0.385,0.281C1588.541,75.779,1587.971,75.782,1587.399,75.782z M1580.912,74.838
	c2.321,0.111,4.81,0.16,7.431,0.142c-0.108-0.207-0.19-0.41-0.21-0.544c0-0.003-0.001-0.008-0.001-0.013h-0.002
	c0-0.005,0-0.01,0-0.015c0-0.003-0.001-0.006-0.001-0.009c-0.001-0.01-0.002-0.02-0.002-0.029v-0.001c-0.001-0.01-0.001-0.02,0-0.03
	c-0.012-2.209-1.279-3.645-3.237-3.674c-2.148-0.033-4.24-0.123-6.224-0.27l-0.176,2.601c0.258,0.036,0.794,0.079,1.905,0.11
	l0.204,0.007c0.106,0.005,0.206,0.052,0.278,0.131c0.071,0.079,0.108,0.183,0.103,0.289L1580.912,74.838z"/>
<path id="nd_1_" fill="#8792A4" d="M1586.702,60.171c-0.333,1.581,0.89,3.533,0.771,5.138c-2.938-0.015-5.862-0.113-8.794-0.303
	c0.119-1.705,0.248-3.41,0.354-5.116v0.042C1581.487,59.819,1584.168,60.197,1586.702,60.171"/>
<path fill="#FFFFFF" d="M1587.474,65.709c0,0-0.001,0-0.002,0c-2.963-0.016-5.93-0.117-8.817-0.304
	c-0.106-0.007-0.206-0.056-0.275-0.136c-0.07-0.081-0.105-0.186-0.099-0.292l0.11-1.547c0.085-1.188,0.17-2.377,0.244-3.566
	c0.014-0.211,0.188-0.375,0.399-0.375c0.051,0.003,0.113,0.013,0.164,0.035c1.306-0.048,2.688,0.036,4.024,0.117
	c1.065,0.064,2.166,0.131,3.222,0.131l0.254-0.002c0.163-0.015,0.237,0.053,0.313,0.146s0.106,0.218,0.082,0.336
	c-0.159,0.756,0.091,1.639,0.356,2.574c0.237,0.836,0.482,1.7,0.422,2.511C1587.858,65.547,1587.683,65.709,1587.474,65.709z
	 M1579.108,64.632c2.615,0.162,5.293,0.254,7.97,0.274c-0.031-0.574-0.21-1.202-0.396-1.86c-0.233-0.822-0.473-1.667-0.432-2.475
	c-1.018-0.007-2.062-0.07-3.074-0.131c-1.256-0.077-2.555-0.153-3.767-0.122c-0.068,1.057-0.145,2.113-0.22,3.169L1579.108,64.632z"
	/>
<path id="nc_1_" fill="#8792A4" d="M1614.941,78.208c0.135,0.117,0.407,0.481,0.416,0.669c-0.228,0.067-0.952,0.416-1.206,0.247
	c0.162,0.089,1.067,0.335,1.295,0.015c0.928,0.986-0.934,1.127-1.373,1.091c0.513,0.098,1.157,0.821,0.275,0.821
	c0.069-0.03,0.825-0.332,0.825-0.11c-0.548,0.828-1.542,0.853-1.829,1.995c-0.343,1.37-2.373-0.888-2.822-0.816
	c-1.339,0.212-1.933-0.49-3.305-0.152c-0.975,0.145-1.872,0.652-2.915,0.799c0.11-0.818,3.064-3.17,3.679-3.267
	c2.34-0.369,4.661-0.815,6.982-1.292"/>
<path fill="#FFFFFF" d="M1612.872,83.777c-0.548,0-1.175-0.45-1.738-0.855c-0.223-0.16-0.528-0.38-0.63-0.408
	c-0.627,0.112-1.156-0.005-1.624-0.108c-0.5-0.111-0.934-0.208-1.567-0.05c-0.475,0.072-0.903,0.219-1.358,0.375
	c-0.503,0.173-1.023,0.351-1.597,0.432c-0.121,0.014-0.25-0.024-0.338-0.113c-0.089-0.088-0.131-0.213-0.114-0.337
	c0.144-1.061,3.282-3.493,4.012-3.608c2.042-0.321,4.19-0.719,6.966-1.287l0.076,0.371l0.244-0.281
	c0.136,0.118,0.535,0.582,0.553,0.952c0.001,0.009,0.001,0.019,0.001,0.027c0.422,0.462,0.382,0.829,0.271,1.057
	c-0.137,0.285-0.444,0.453-0.777,0.552c0.039,0.014,0.076,0.03,0.11,0.053c0.112,0.074,0.212,0.259,0.212,0.394
	c0,0.078-0.023,0.155-0.066,0.221c-0.268,0.404-0.617,0.643-0.926,0.854c-0.4,0.274-0.716,0.49-0.849,1.019
	c-0.111,0.444-0.365,0.622-0.559,0.692C1613.077,83.762,1612.976,83.777,1612.872,83.777z M1610.545,81.718
	c0.284,0,0.585,0.216,1.056,0.554c0.299,0.216,1.087,0.79,1.298,0.703c0.007-0.006,0.035-0.044,0.059-0.137
	c0.202-0.809,0.702-1.161,1.149-1.468c-0.075-0.057-0.13-0.14-0.15-0.237c-0.037-0.18,0.052-0.36,0.215-0.44
	c-0.057-0.033-0.117-0.059-0.175-0.07c-0.209-0.04-0.35-0.236-0.321-0.446c0.029-0.211,0.223-0.366,0.429-0.345
	c0.292,0.021,0.774-0.041,1.037-0.139c-0.365,0.032-0.761-0.064-0.995-0.143c-0.077-0.018-0.149-0.048-0.217-0.093
	c-0.179-0.119-0.231-0.356-0.12-0.54c0.018-0.03,0.039-0.057,0.062-0.08c-2.238,0.448-4.072,0.78-5.829,1.058
	c-0.446,0.095-2.072,1.383-2.882,2.257c0.181-0.057,0.358-0.117,0.534-0.178c0.469-0.16,0.954-0.327,1.464-0.402
	c0.778-0.195,1.372-0.063,1.895,0.053c0.438,0.098,0.851,0.19,1.406,0.1C1610.488,81.72,1610.517,81.718,1610.545,81.718z
	 M1614.297,78.752c0.016,0.006,0.031,0.013,0.046,0.021c0.012,0.006,0.025,0.011,0.04,0.017c0.066-0.008,0.258-0.075,0.422-0.136
	c-0.002-0.002-0.003-0.003-0.004-0.005C1614.63,78.685,1614.463,78.718,1614.297,78.752z"/>
<path id="mt_1_" fill="#8792A4" d="M1579.033,59.89c-0.138,2.233-0.309,4.466-0.463,6.699c-1.382-0.104-2.766-0.209-4.143-0.372
	c-1.057-0.125-4.49-1.202-4.354,0.289c-0.389-0.356-1.112-0.436-1.896-0.281c-0.833,0.163-0.753-1.62-1.168-2.25
	c-1.255,0.687-0.304-1.26-0.178-1.688c-0.693-0.037-1.646-2.003-1.526-2.601c0.368-1.827,0.284-1.615,1.965-1.307
	c0.915,0.168,1.835,0.312,2.752,0.469C1572.996,59.354,1576.027,59.676,1579.033,59.89"/>
<path fill="#FFFFFF" d="M1578.571,66.989c-0.01,0-0.021-0.001-0.03-0.002l0.03-0.398l-0.04,0.398
	c-1.361-0.104-2.768-0.21-4.149-0.373c-0.221-0.026-0.542-0.092-0.912-0.168c-0.696-0.144-1.562-0.322-2.227-0.322
	c-0.543,0-0.697,0.123-0.731,0.161c-0.015,0.015-0.051,0.055-0.039,0.185c0.015,0.164-0.073,0.321-0.221,0.395
	c-0.148,0.073-0.326,0.05-0.448-0.063c-0.267-0.244-0.872-0.318-1.548-0.184c-0.063,0.013-0.123,0.018-0.181,0.018l0,0
	c-0.771,0-0.973-0.883-1.134-1.592c-0.042-0.186-0.088-0.384-0.14-0.551c-0.308,0.076-0.565-0.011-0.713-0.227
	c-0.258-0.376-0.059-0.991,0.235-1.756c-0.169-0.113-0.339-0.279-0.508-0.497c-0.521-0.671-1.019-1.824-0.902-2.406l0.025-0.123
	c0.229-1.139,0.344-1.71,1.116-1.71c0.215,0,0.465,0.05,0.812,0.119l0.477,0.093c0.606,0.111,1.215,0.213,1.823,0.313l0.924,0.154
	c2.714,0.462,5.648,0.801,8.973,1.037c0.219,0.016,0.385,0.205,0.371,0.424c-0.092,1.475-0.197,2.948-0.303,4.422l-0.161,2.28
	c-0.008,0.106-0.058,0.205-0.138,0.275C1578.759,66.954,1578.666,66.989,1578.571,66.989z M1571.242,65.324
	c0.746,0,1.656,0.188,2.388,0.338c0.343,0.071,0.641,0.133,0.845,0.157c1.234,0.146,2.495,0.247,3.725,0.34l0.134-1.88
	c0.096-1.34,0.191-2.68,0.277-4.02c-3.188-0.236-6.023-0.57-8.655-1.018l-0.92-0.154c-0.613-0.102-1.226-0.203-1.837-0.315
	l-0.489-0.095c-0.29-0.059-0.519-0.104-0.654-0.104c-0.134,0.081-0.23,0.561-0.332,1.067l-0.024,0.124
	c-0.04,0.196,0.228,1.046,0.698,1.69c0.247,0.338,0.417,0.427,0.458,0.432c0.117,0.014,0.234,0.078,0.3,0.177
	s0.095,0.222,0.062,0.335c-0.023,0.079-0.07,0.204-0.129,0.354c-0.072,0.188-0.234,0.606-0.296,0.886
	c0.009-0.005,0.018-0.01,0.026-0.015c0.183-0.1,0.411-0.045,0.526,0.131c0.188,0.286,0.28,0.687,0.376,1.11
	c0.055,0.239,0.222,0.97,0.354,0.97c0.708-0.134,1.279-0.107,1.734,0.06c0.035-0.06,0.074-0.108,0.111-0.149
	C1570.179,65.462,1570.612,65.324,1571.242,65.324z"/>
<path id="ms_1_" fill="#8792A4" d="M1595.942,83.966c0.341-0.765,2.416-0.544,3.25-0.63c-0.036,1.898-0.284,3.905-0.031,5.789
	c0.119,0.892,0.763,2.095-0.356,2.101c-1.177,0.007-1.13,0.773-1.369-0.921c-0.923,0.062-1.847,0.125-2.771,0.188
	c0.104-0.787,0.758-1.423,0.819-2.146c0.056-0.644-0.337-1.275-0.318-1.97C1594.774,85.873,1595.775,84.402,1595.942,83.966z"/>
<path fill="#FFFFFF" d="M1597.792,91.805c-0.472,0-0.592-0.379-0.7-1.076l-2.401,0.163c-0.138-0.006-0.237-0.039-0.319-0.126
	s-0.12-0.207-0.104-0.325c0.061-0.463,0.275-0.868,0.465-1.226c0.169-0.319,0.328-0.62,0.353-0.902
	c0.022-0.26-0.057-0.547-0.14-0.852c-0.08-0.293-0.17-0.621-0.18-0.972c-0.296-0.597,0.191-1.503,0.588-2.242
	c0.097-0.18,0.179-0.329,0.215-0.424c0.372-0.835,1.74-0.849,2.84-0.86c0.29-0.003,0.551-0.005,0.743-0.024
	c0.107-0.018,0.228,0.025,0.312,0.104c0.085,0.077,0.132,0.188,0.13,0.302c-0.011,0.562-0.04,1.136-0.069,1.711
	c-0.068,1.34-0.14,2.725,0.034,4.017c0.026,0.195,0.08,0.405,0.132,0.613c0.145,0.576,0.294,1.172-0.029,1.587
	c-0.181,0.233-0.468,0.353-0.854,0.354c-0.303,0.001-0.505,0.062-0.668,0.11C1598.022,91.771,1597.911,91.805,1597.792,91.805z
	 M1597.435,89.904c0.198,0,0.368,0.146,0.396,0.345c0.029,0.208,0.073,0.52,0.114,0.71c0.188-0.056,0.464-0.131,0.856-0.134
	c0.157,0,0.217-0.032,0.226-0.044c0.084-0.108-0.045-0.624-0.115-0.901c-0.06-0.238-0.119-0.479-0.148-0.702
	c-0.184-1.365-0.11-2.788-0.041-4.163c0.022-0.422,0.043-0.842,0.058-1.257c-0.115,0.002-0.237,0.004-0.365,0.005
	c-0.634,0.007-1.954,0.021-2.108,0.366c-0.036,0.096-0.132,0.279-0.249,0.496c-0.456,0.849-0.649,1.357-0.574,1.511
	c0.057,0.073,0.083,0.159,0.08,0.252c-0.007,0.278,0.07,0.562,0.152,0.862c0.099,0.358,0.2,0.729,0.165,1.131
	c-0.038,0.444-0.243,0.833-0.442,1.208c-0.084,0.158-0.165,0.312-0.232,0.466l2.201-0.149
	C1597.417,89.905,1597.426,89.904,1597.435,89.904z"/>
<path id="mn_1_" fill="#8792A4" d="M1587.11,65.892c0-0.233,0.307-0.257,0.354-0.468c0.124-0.548-0.231-1.504-0.303-2.054
	c-0.12-0.91-0.649-2.295-0.459-3.198c0.747,0,2.527,0.407,2.313-0.646c0.779,0.345,0.211,1.084,1.237,1.199
	c0.653,0.073,1.316-0.091,1.872,0.497c0.344,0.364,2.555,0.283,3.299,0.283c-0.367,0.589-1.501,0.962-2.031,1.538
	c-0.474,0.516-0.886,1.918-1.259,2.1c-1.557,0.758,1.677,3.378,1.874,4.084c-2.127,0.13-4.258,0.198-6.389,0.208
	C1587.613,68.363,1588.034,66.588,1587.11,65.892z"/>
<path fill="#FFFFFF" d="M1587.62,69.835c-0.22,0-0.398-0.178-0.4-0.397c-0.002-0.256,0.02-0.55,0.043-0.86
	c0.067-0.919,0.145-1.961-0.394-2.366c-0.101-0.075-0.16-0.193-0.16-0.319c0-0.327,0.229-0.496,0.34-0.577
	c0.088-0.257-0.04-0.785-0.142-1.21c-0.062-0.254-0.117-0.491-0.143-0.683c-0.038-0.286-0.119-0.623-0.203-0.976
	c-0.186-0.779-0.396-1.662-0.251-2.356c0.039-0.186,0.202-0.318,0.392-0.318c0.157,0,0.358,0.017,0.576,0.035
	c0.236,0.021,0.495,0.043,0.739,0.043c0.51,0,0.604-0.107,0.607-0.112c0.008-0.01,0.015-0.054-0.001-0.133
	c-0.03-0.146,0.024-0.297,0.141-0.391s0.275-0.113,0.413-0.055c0.515,0.228,0.639,0.605,0.721,0.855
	c0.075,0.229,0.091,0.278,0.399,0.312c0.145,0.017,0.29,0.02,0.435,0.023c0.511,0.013,1.147,0.028,1.684,0.597
	c0.046,0.026,0.38,0.165,2,0.165l1.008-0.008c0.146,0,0.279,0.079,0.35,0.206s0.066,0.282-0.01,0.406
	c-0.251,0.402-0.73,0.69-1.194,0.969c-0.334,0.2-0.68,0.408-0.883,0.628c-0.182,0.199-0.385,0.625-0.564,1.001
	c-0.304,0.639-0.506,1.038-0.813,1.188c-0.168,0.082-0.185,0.162-0.191,0.196c-0.099,0.481,0.838,1.561,1.396,2.205
	c0.508,0.585,0.799,0.93,0.879,1.216c0.032,0.116,0.01,0.241-0.06,0.34c-0.07,0.098-0.182,0.159-0.302,0.167
	c-2.106,0.129-4.263,0.199-6.409,0.209C1587.621,69.835,1587.621,69.835,1587.62,69.835z M1587.646,65.86
	c0.566,0.717,0.483,1.846,0.415,2.775c-0.011,0.137-0.021,0.269-0.027,0.396c1.758-0.015,3.521-0.07,5.253-0.165
	c-0.122-0.146-0.259-0.304-0.377-0.44c-0.821-0.947-1.753-2.021-1.575-2.889c0.046-0.229,0.192-0.545,0.625-0.755
	c0.09-0.073,0.301-0.519,0.441-0.812c0.213-0.447,0.434-0.911,0.697-1.198c0.281-0.305,0.677-0.543,1.06-0.772
	c0.048-0.029,0.097-0.059,0.145-0.088c-1.729-0.006-2.229-0.164-2.467-0.415c-0.294-0.312-0.603-0.334-1.123-0.348
	c-0.167-0.004-0.336-0.009-0.504-0.027c-0.76-0.085-0.944-0.488-1.048-0.79c-0.308,0.282-0.792,0.317-1.143,0.317
	c-0.266,0-0.549-0.023-0.807-0.046c-0.051-0.004-0.101-0.008-0.149-0.012c-0.003,0.49,0.145,1.109,0.278,1.669
	c0.091,0.382,0.177,0.746,0.218,1.057c0.022,0.169,0.073,0.377,0.127,0.6c0.128,0.532,0.273,1.135,0.169,1.595
	C1587.818,65.673,1587.731,65.782,1587.646,65.86z"/>
<path id="mo_2_" fill="#8792A4" d="M1597.133,80.958c-0.074,0.572-0.425,1.088-1.125,0.959c-0.096-0.21,0.67-0.925-0.072-0.877
	c-0.768,0.049-1.535,0.105-2.303,0.147c-0.978,0.053-3.469,0.619-3.496-0.5c-0.031-1.251,0.102-2.602-0.089-3.835
	c-0.786-0.492-0.163-0.842-0.412-1.234c-0.266-0.417-1.103-0.533-1.109-1.266c1.102,0.008,2.192-0.004,3.292-0.067
	c0.539-0.032,1.069-0.067,1.605-0.127c0.815-0.091,0.583,1.438,1.273,1.907c1.202,0.815,0.696,1.57,1.57,2.601
	c0.671-0.184,0.598,0.96,0.855,1.297C1597.597,80.584,1597.169,80.328,1597.133,80.958z"/>
<path fill="#FFFFFF" d="M1596.217,82.337c-0.089,0-0.183-0.009-0.281-0.026c-0.129-0.023-0.237-0.108-0.292-0.228
	c-0.101-0.222-0.016-0.434,0.083-0.625l-0.562,0.034c-0.503,0.033-1.007,0.067-1.511,0.095c-0.182,0.01-0.417,0.038-0.68,0.07
	c-0.473,0.056-1.008,0.12-1.507,0.12c-1.408,0-1.719-0.587-1.73-1.08c-0.011-0.424-0.003-0.859,0.006-1.297
	c0.015-0.777,0.029-1.578-0.066-2.319c-0.549-0.423-0.453-0.863-0.399-1.109c0.011-0.047,0.026-0.118,0.022-0.139
	c-0.052-0.08-0.195-0.173-0.335-0.263c-0.331-0.213-0.831-0.535-0.838-1.214c-0.001-0.107,0.041-0.211,0.117-0.286
	c0.075-0.075,0.177-0.118,0.283-0.118c0.001,0,0.002,0,0.003,0l0.571,0.003c1.025,0,1.882-0.022,2.694-0.07
	c0.532-0.03,1.056-0.065,1.585-0.124c0.015-0.002,0.097-0.007,0.111-0.007c0.696,0,0.896,0.678,1.041,1.173
	c0.098,0.333,0.199,0.679,0.39,0.808c0.798,0.541,0.968,1.104,1.118,1.603c0.091,0.303,0.179,0.592,0.407,0.91
	c0.616,0.03,0.779,0.696,0.877,1.099c0.032,0.128,0.079,0.323,0.116,0.375c0.306,0.4,0.416,0.669,0.169,1.023
	c-0.042,0.059-0.069,0.098-0.077,0.236C1597.425,81.815,1596.909,82.337,1596.217,82.337z M1595.923,80.641
	c0.428,0,0.589,0.149,0.664,0.275c0.055,0.092,0.076,0.185,0.077,0.275c0.043-0.105,0.062-0.213,0.072-0.285
	c0.015-0.272,0.103-0.446,0.173-0.555c-0.022-0.034-0.056-0.081-0.104-0.146c-0.137-0.178-0.195-0.417-0.257-0.671
	c-0.038-0.154-0.108-0.443-0.176-0.501c-0.15,0.039-0.31,0.009-0.409-0.109c-0.434-0.511-0.569-0.96-0.689-1.357
	c-0.138-0.458-0.238-0.789-0.801-1.171c-0.428-0.29-0.577-0.797-0.708-1.244c-0.07-0.238-0.176-0.598-0.273-0.598
	c-0.566,0.062-1.104,0.097-1.649,0.129c-0.806,0.047-1.652,0.07-2.656,0.071c0.059,0.043,0.129,0.09,0.211,0.143
	c0.213,0.137,0.432,0.278,0.577,0.506c0.183,0.288,0.121,0.57,0.085,0.739c-0.041,0.187-0.047,0.215,0.201,0.371
	c0.099,0.062,0.166,0.163,0.184,0.278c0.132,0.854,0.115,1.754,0.099,2.623c-0.008,0.427-0.017,0.851-0.007,1.263
	c0.007,0.261,0.587,0.3,0.932,0.3c0.452,0,0.962-0.062,1.412-0.115c0.282-0.034,0.536-0.063,0.731-0.074
	c0.5-0.027,1-0.061,1.5-0.095l0.8-0.053C1595.914,80.641,1595.919,80.641,1595.923,80.641z"/>
<path id="mi_upper_1_" fill="#8792A4" d="M1594.643,63.964c0.676-0.438,1.359-0.581,1.907-1.219
	c0.041,0.144,0.266,0.318,0.331,0.501c-0.06-0.194-0.061-0.13-0.004,0.193c0.738-0.729,0.922,0.268,1.633,0.325
	c0.798,0.064,1.602-0.805,2.385-0.738c0.274,0.683,1.18,0.277,1.469,1.156c-1.017,0.301-2.777-0.14-3.513,0.888
	c-0.081-0.091-0.109-0.201-0.088-0.331c-0.21,0.473-0.413,0.95-0.598,1.434c-0.009-0.003-0.733-1.175-0.735-1.207
	C1597.422,64.826,1595.065,64.175,1594.643,63.964"/>
<path fill="#FFFFFF" d="M1598.165,66.573c-0.042,0-0.085-0.007-0.127-0.021c-0.207-0.069-0.672-0.876-0.891-1.304
	c-0.194-0.095-0.893-0.317-1.364-0.469c-0.692-0.221-1.126-0.362-1.319-0.459c-0.129-0.063-0.213-0.192-0.221-0.335
	c-0.008-0.144,0.062-0.28,0.182-0.358c0.248-0.16,0.497-0.284,0.74-0.404c0.417-0.206,0.776-0.385,1.081-0.739
	c0.096-0.112,0.247-0.158,0.39-0.13c0.144,0.031,0.258,0.14,0.299,0.28c0.01,0.011,0.043,0.047,0.075,0.086
	c0.027,0.033,0.055,0.066,0.081,0.102c0.41-0.145,0.782,0.101,1.023,0.301c0.149,0.124,0.278,0.231,0.428,0.243
	c0.002,0,0.004,0,0.006,0c0.329,0,0.647-0.161,0.984-0.33c0.402-0.203,0.819-0.413,1.275-0.413c0.012,0,0.109,0.004,0.121,0.005
	c0.15,0.013,0.28,0.109,0.337,0.249c0.05,0.125,0.129,0.164,0.415,0.253c0.336,0.104,0.844,0.262,1.063,0.928
	c0.034,0.103,0.024,0.215-0.025,0.311c-0.051,0.096-0.138,0.167-0.241,0.198c-0.392,0.115-0.841,0.134-1.316,0.152
	c-0.793,0.031-1.612,0.063-1.985,0.584c-0.069,0.097-0.177,0.157-0.295,0.166c-0.119,0.28-0.233,0.562-0.342,0.847
	C1598.479,66.475,1598.326,66.573,1598.165,66.573z M1597.816,64.841c0.049,0.085,0.156,0.263,0.271,0.451
	c0.101-0.24,0.204-0.479,0.311-0.716c0.082-0.184,0.288-0.278,0.48-0.22c0.033,0.01,0.065,0.024,0.094,0.042
	c0.607-0.418,1.421-0.45,2.158-0.479c0.117-0.005,0.233-0.009,0.347-0.015c-0.011-0.004-0.022-0.007-0.033-0.011
	c-0.241-0.074-0.552-0.171-0.77-0.452c-0.257,0.044-0.514,0.173-0.782,0.309c-0.407,0.205-0.829,0.418-1.296,0.418
	c-0.011,0-0.107-0.004-0.118-0.005c-0.4-0.031-0.674-0.259-0.874-0.424c-0.073-0.061-0.195-0.162-0.235-0.165
	c-0.001,0-0.066,0.007-0.211,0.15c-0.106,0.104-0.262,0.142-0.403,0.096s-0.247-0.166-0.272-0.312
	c-0.008-0.046-0.015-0.088-0.021-0.125c-0.271,0.216-0.557,0.366-0.838,0.506c0.133,0.044,0.271,0.088,0.403,0.13
	C1597.441,64.47,1597.752,64.569,1597.816,64.841z"/>
<path id="mi_lower_1_" fill="#8792A4" d="M1602.218,71.528c1.444-0.22,2.76-1.294,2.606-2.547c-0.062-0.505-0.67-2.562-1.332-1.337
	c-0.606,1.125-0.871-0.394-0.174-0.75c1.713-0.875-3.27-3.288-2.133-1.524c-2.678-0.225-0.341,5.477-1.521,6.346
	c0.85-0.074,1.693-0.187,2.539-0.289"/>
<path fill="#FFFFFF" d="M1599.665,72.116c-0.165,0-0.315-0.103-0.374-0.259c-0.063-0.168-0.008-0.357,0.137-0.464
	c0.3-0.221,0.188-1.471,0.106-2.384c-0.128-1.437-0.261-2.922,0.457-3.644c0.174-0.175,0.384-0.293,0.628-0.354
	c-0.016-0.157,0.021-0.297,0.108-0.416c0.187-0.258,0.531-0.319,1.021-0.188c0.785,0.212,2.234,1.034,2.328,1.919
	c0.014,0.133,0.004,0.334-0.123,0.534c0.032,0.002,0.062,0.006,0.092,0.012c0.873,0.164,1.174,2.04,1.176,2.06
	c0.189,1.542-1.38,2.754-2.942,2.991l-0.072-0.471l0.045,0.371l-0.52,0.063c-0.677,0.084-1.353,0.167-2.031,0.227
	C1599.689,72.115,1599.677,72.116,1599.665,72.116z M1601.035,65.764c-0.275,0-0.403,0.093-0.477,0.167
	c-0.455,0.457-0.329,1.872-0.228,3.008c0.08,0.893,0.152,1.707,0.023,2.308c0.427-0.047,0.853-0.1,1.278-0.152l0.522-0.064
	l0.012,0.103c1.195-0.186,2.387-1.072,2.26-2.102c-0.049-0.4-0.31-1.119-0.497-1.33c-0.022,0.028-0.052,0.071-0.086,0.135
	c-0.247,0.458-0.536,0.659-0.837,0.61c-0.258-0.045-0.441-0.265-0.49-0.587c-0.068-0.451,0.125-1.067,0.619-1.32
	c0.164-0.083,0.15-0.121,0.134-0.17c-0.155-0.444-1.188-1.047-1.735-1.196c0.071,0.125,0.07,0.28-0.005,0.404
	c-0.077,0.131-0.226,0.213-0.376,0.192C1601.112,65.766,1601.073,65.764,1601.035,65.764z"/>
<path id="ma_1_" fill="#8792A4" d="M1618.785,68.121c0.157,0.061,0.31,0.16,0.318,0.346c0.088-0.091,0.355-0.458,0.463-0.491
	c0.491,0.587,1.381-0.71,0.359-0.758c0.89,1.163-0.938,0.16-1.106-0.187c0.085-0.078,0.405-0.571,0.376-0.601
	c-0.146-0.139-2.854,0.218-3.192,0.67C1614.687,68.857,1618.362,67.745,1618.785,68.121"/>
<path fill="#FFFFFF" d="M1619.104,68.867c-0.048,0-0.096-0.009-0.142-0.026c-0.135-0.051-0.23-0.17-0.253-0.31
	c-0.047-0.021-0.132-0.069-0.174-0.1c0.018,0.02-0.045,0.005-0.196,0.005c-0.203,0-0.454,0.021-0.719,0.042
	c-0.318,0.024-0.653,0.051-0.954,0.051l0,0c-0.478,0-1.054-0.057-1.272-0.494c-0.236-0.473,0.159-1.001,0.289-1.175
	c0.467-0.623,2.9-0.86,3.294-0.86c0.214,0,0.371,0.023,0.494,0.14c0.083,0.078,0.131,0.195,0.127,0.31
	c-0.004,0.142-0.129,0.362-0.255,0.547c0.058,0.041,0.124,0.084,0.194,0.127c0.008-0.031,0.02-0.062,0.034-0.091
	c0.072-0.137,0.228-0.209,0.373-0.214c0.641,0.03,0.859,0.433,0.852,0.769c-0.014,0.575-0.677,1.083-1.187,0.896
	c-0.029,0.037-0.061,0.075-0.083,0.104c-0.057,0.068-0.105,0.127-0.136,0.158C1619.315,68.824,1619.21,68.867,1619.104,68.867z
	 M1618.984,67.77c0.048,0.021,0.092,0.044,0.131,0.067c0.008-0.008,0.016-0.017,0.023-0.024c-0.312-0.189-0.589-0.423-0.678-0.606
	c-0.058-0.118-0.053-0.255,0.008-0.366c-0.86,0.091-1.962,0.332-2.154,0.513c-0.141,0.188-0.18,0.295-0.189,0.339
	c0.031-0.015,0.179,0.038,0.542,0.038l0,0c0.28,0,0.594-0.025,0.891-0.049C1618.146,67.634,1618.633,67.543,1618.984,67.77z"/>
<path id="md_1_" fill="#8792A4" d="M1612.669,74.52c0.018-0.219,0.252,0.968,0.096,0.875c0.542,0.069,0.577-0.058,1.176,0.326
	c-0.146-0.265-0.296-0.578-0.417-0.87c-0.17-0.414,0.301-1.516,0.328-1.456c0.154,0.339-0.016,1.101,0.128,1.547
	c0.147,0.463,0.344,0.057,0.637,0.474c0.402,0.573,0.804,0.399,0.835-0.646c-0.898,0.499-0.885-0.155-1.079-0.865
	c-0.301-1.096-0.157-1.069-1.263-0.833c-1.02,0.219-4.232,0.206-3.546,1.614C1610.68,73.116,1611.33,73.948,1612.669,74.52"/>
<path fill="#FFFFFF" d="M1615.046,76.139c-0.252,0-0.489-0.143-0.705-0.424c0.001,0.11-0.043,0.219-0.127,0.298
	c-0.133,0.125-0.333,0.144-0.489,0.045c-0.35-0.225-0.416-0.228-0.634-0.236c-0.086-0.004-0.184-0.008-0.306-0.021
	c-0.125-0.003-0.163-0.023-0.225-0.062c-0.163-0.097-0.235-0.295-0.174-0.474c0.008-0.023,0.018-0.045,0.029-0.065
	c-0.009-0.104-0.032-0.259-0.057-0.379c-0.202-0.092-0.39-0.188-0.565-0.278c-0.393-0.201-0.702-0.36-0.961-0.36
	c-0.181,0-0.475,0.076-0.943,0.735c-0.082,0.115-0.203,0.179-0.359,0.167c-0.141-0.012-0.265-0.097-0.326-0.224
	c-0.221-0.451-0.132-0.792-0.019-0.999c0.418-0.765,1.862-0.933,3.022-1.067c0.327-0.038,0.617-0.07,0.818-0.114l0.147-0.031
	c0.305-0.066,0.507-0.109,0.681-0.109c0.574,0,0.689,0.442,0.823,0.956l0.08,0.304c0.029,0.105,0.054,0.209,0.077,0.309
	c0.036,0.157,0.092,0.393,0.141,0.454c-0.009-0.019,0.081-0.03,0.281-0.142c0.127-0.071,0.281-0.066,0.402,0.008
	c0.123,0.075,0.196,0.21,0.191,0.354C1615.816,75.962,1615.331,76.139,1615.046,76.139z M1612.693,74.093
	c0.262,0.008,0.359,0.222,0.402,0.364c0.034-0.376,0.177-0.782,0.286-1.035c-0.012,0.003-0.024,0.006-0.038,0.009l-0.148,0.032
	c-0.22,0.047-0.536,0.084-0.895,0.126c-0.146,0.017-0.318,0.037-0.501,0.061c0.117,0.056,0.236,0.117,0.36,0.181
	C1612.325,73.915,1612.501,74.006,1612.693,74.093z"/>
<path id="me_1_" fill="#8792A4" d="M1617.442,62.245c0.775-0.642,0.34-1.897,0.649-2.811c0.278-0.824,1-1.87,1.994-1.229
	c0.087,0.056,1.39,2.643,1.412,2.485c0.28,0.379,0.714,0.709,0.832,0.9c0.205,0.332-1.754,1.44-1.772,1.442
	c0.064-0.123,0.029-0.237-0.104-0.344c0.021,0.359-0.514,1.301-0.507,1.318c-0.222,0.333-0.741,0.218-0.76,0.581
	c-0.228,0.312-0.087,0.88-0.276,1.209C1618.029,65.021,1617.798,63.324,1617.442,62.245"/>
<path fill="#FFFFFF" d="M1618.91,66.198c-0.097,0-0.19-0.035-0.265-0.101c-0.757-0.667-1.067-1.838-1.341-2.87
	c-0.081-0.308-0.158-0.601-0.243-0.857c-0.052-0.156-0.002-0.328,0.125-0.434c0.34-0.281,0.353-0.787,0.367-1.373
	c0.01-0.419,0.021-0.853,0.158-1.258c0.277-0.821,0.888-1.699,1.768-1.699c0.275,0,0.553,0.089,0.822,0.263
	c0.116,0.074,0.124,0.079,0.71,1.178c0.243,0.455,0.599,1.122,0.731,1.328c0.028,0.022,0.054,0.048,0.075,0.077
	c0.139,0.188,0.32,0.361,0.473,0.51c0.167,0.161,0.298,0.289,0.379,0.419c0.095,0.154,0.099,0.347,0.01,0.528
	c-0.231,0.472-1.616,1.357-2.009,1.502c-0.081,0.195-0.186,0.413-0.307,0.65l-0.043,0.086c-0.011,0.029-0.024,0.057-0.042,0.082
	c-0.175,0.263-0.438,0.357-0.613,0.419c-0.027,0.01-0.062,0.022-0.091,0.034c-0.012,0.051-0.034,0.099-0.065,0.142
	c-0.053,0.072-0.067,0.262-0.079,0.429c-0.019,0.239-0.039,0.51-0.174,0.744c-0.06,0.104-0.163,0.176-0.281,0.195
	C1618.953,66.196,1618.932,66.198,1618.91,66.198z M1617.896,62.357c0.062,0.208,0.121,0.433,0.183,0.665
	c0.16,0.605,0.335,1.265,0.599,1.789c0.023-0.125,0.062-0.248,0.126-0.363c0.079-0.369,0.422-0.491,0.594-0.553
	c0.082-0.029,0.167-0.06,0.204-0.095c0.016-0.032,0.032-0.065,0.05-0.102c0.352-0.691,0.403-0.916,0.403-0.988
	c-0.001-0.154,0.087-0.305,0.226-0.372c0.141-0.067,0.306-0.057,0.424,0.038c0.027,0.022,0.053,0.045,0.075,0.067
	c0.379-0.233,0.876-0.566,1.091-0.776c-0.044-0.044-0.093-0.092-0.135-0.132c-0.143-0.139-0.313-0.305-0.466-0.488
	c-0.155-0.111-0.347-0.47-0.963-1.625c-0.185-0.346-0.409-0.767-0.5-0.919c-0.602-0.333-1.102,0.369-1.336,1.059
	c-0.099,0.29-0.107,0.646-0.116,1.021C1618.338,61.184,1618.322,61.854,1617.896,62.357z"/>
<path id="la_2_" fill="#8792A4" d="M1597.842,91.659c-0.092,0.028-1.475-0.559-1.29,0.066c0.161,0.545,0.741-0.106,0.977,0.129
	c-0.003,0.088-0.048,0.138-0.135,0.149c0.261,0.203,0.563-0.142,0.659,0.043c0.166,0.32-0.248,0.481-0.326,0.519
	c-0.172,0.245,0.821,0.564,0.919,0.709c-0.004,0.108-0.044,0.202-0.117,0.28c-0.542-0.234-1.026-0.569-1.573-0.791
	c0.043,0.082,0.437,0.857-0.02,0.812c0.037,0.004-0.309-0.391-0.303-0.375c-0.341,0.039-0.73,0.767-1.048,0.068
	c-0.66-1.46-3.01,0.206-3.972-0.493c-0.153-0.112,0.13-1.101,0.106-1.315c-0.113-0.762,0.109-1.256-0.243-2.093
	c-0.544-1.292-0.816-2.121,0.762-2.178c0.638-0.023,2.477-0.461,2.904-0.146c0.983,0.721-0.379,2.686-0.479,3.448
	c0.924-0.062,1.848-0.125,2.771-0.188C1597.512,90.847,1597.273,91.188,1597.842,91.659"/>
<path fill="#FFFFFF" d="M1596.972,93.979c-0.013,0-0.062-0.003-0.075-0.004c-0.147-0.015-0.269-0.107-0.326-0.234
	c-0.009-0.013-0.021-0.026-0.032-0.042c-0.003,0.003-0.007,0.005-0.01,0.007c-0.161,0.118-0.363,0.266-0.619,0.266
	c-0.203,0-0.487-0.093-0.688-0.536c-0.105-0.232-0.268-0.387-0.723-0.387c-0.311,0-0.686,0.076-1.049,0.149
	c-0.787,0.158-1.601,0.245-2.071-0.098c-0.299-0.219-0.222-0.643-0.115-1.229c0.028-0.159,0.059-0.303,0.059-0.38
	c-0.044-0.284-0.039-0.559-0.035-0.802c0.006-0.384,0.012-0.715-0.178-1.165c-0.39-0.925-0.64-1.621-0.298-2.156
	c0.309-0.482,0.954-0.56,1.413-0.576c0.183-0.007,0.47-0.051,0.793-0.099c0.509-0.076,1.085-0.162,1.545-0.162
	c0.381,0,0.641,0.062,0.818,0.191c0.949,0.696,0.386,2.032-0.025,3.008c-0.046,0.108-0.093,0.22-0.135,0.324l2.188-0.148
	c0.23-0.004,0.395,0.137,0.424,0.344c0.024,0.178,0.021,0.337,0.018,0.486c-0.008,0.292-0.011,0.402,0.247,0.616
	c0.097,0.08,0.149,0.2,0.145,0.323c0.069,0.046,0.126,0.109,0.167,0.188c0.116,0.226,0.09,0.42,0.048,0.543
	c-0.031,0.088-0.077,0.163-0.131,0.227c0.058,0.03,0.113,0.058,0.157,0.08c0.242,0.121,0.401,0.201,0.494,0.339
	c0.048,0.07,0.071,0.153,0.068,0.238c-0.007,0.205-0.086,0.393-0.227,0.541c-0.116,0.121-0.294,0.159-0.449,0.092
	c-0.267-0.116-0.521-0.254-0.774-0.394c-0.018-0.009-0.035-0.019-0.052-0.028c-0.013,0.076-0.037,0.147-0.076,0.213
	C1597.365,93.881,1597.185,93.978,1596.972,93.979z M1594.498,92.248c0.706,0,1.194,0.288,1.451,0.856
	c0.004,0.01,0.008,0.018,0.012,0.025c0.029-0.022,0.066-0.049,0.095-0.07c0.142-0.104,0.302-0.22,0.503-0.252
	c-0.013-0.111,0.022-0.227,0.102-0.312c0.113-0.126,0.291-0.164,0.446-0.103c0.077,0.031,0.153,0.065,0.228,0.1
	c0.006-0.021,0.012-0.042,0.019-0.062c-0.073-0.025-0.143-0.062-0.205-0.111c-0.011-0.008-0.021-0.018-0.03-0.026
	c-0.354,0.115-0.819-0.015-0.949-0.454c-0.08-0.271-0.002-0.453,0.077-0.56c0.158-0.21,0.453-0.277,0.812-0.223
	c-0.012-0.114-0.01-0.224-0.007-0.325l-2.359,0.16c-0.138-0.006-0.237-0.039-0.319-0.126s-0.12-0.207-0.104-0.326
	c0.036-0.276,0.182-0.622,0.351-1.021c0.308-0.729,0.729-1.729,0.289-2.052v0.001c-0.002,0-0.083-0.036-0.345-0.036
	c-0.4,0-0.946,0.081-1.427,0.152c-0.359,0.053-0.679,0.1-0.882,0.106c-0.587,0.021-0.732,0.152-0.768,0.207
	c-0.143,0.224,0.172,0.97,0.36,1.416c0.255,0.605,0.247,1.055,0.24,1.489c-0.004,0.219-0.009,0.442,0.029,0.7
	c0.017,0.147-0.011,0.311-0.065,0.61c-0.024,0.136-0.065,0.358-0.078,0.502c0.271,0.091,0.787,0.005,1.319-0.103
	C1593.694,92.332,1594.109,92.248,1594.498,92.248z"/>
<path id="ky_2_" fill="#8792A4" d="M1597.133,80.958c1.966-0.166,3.398-0.527,5.523-0.759c2.376-0.26,2.487-0.854,4.154-2.108
	c-1.136-0.736-0.832-1.849-2.301-1.701c-0.353,0.035-1.714-0.644-1.807-0.406c-0.057,0.144,0.051,0.861-0.419,0.646
	c0.556,0.257-2.305,1.902-2.223,1.754c-0.186,0.337-1.394-0.35-1.316,0.587c0.015,0.169-0.337,0.577-0.374,0.826
	c-0.188,0.245-0.599-0.285-0.742-0.104C1597.548,79.733,1597.13,81.006,1597.133,80.958"/>
<path fill="#FFFFFF" d="M1597.133,81.358c-0.221,0-0.399-0.179-0.399-0.399c0-0.064,0.015-0.126,0.042-0.18
	c0.015-0.04,0.043-0.12,0.079-0.222c0.37-1.051,0.419-1.133,0.591-1.222l0.001,0.002c0.259-0.146,0.486-0.054,0.658,0.04
	c0.039-0.076,0.083-0.15,0.126-0.224c0.043-0.074,0.108-0.186,0.121-0.225c-0.029-0.221,0.038-0.456,0.194-0.625
	c0.234-0.255,0.578-0.255,0.691-0.255c0.107,0,0.221,0.01,0.331,0.021c0.077,0.007,0.152,0.015,0.22,0.015
	c0.002,0,0.004,0,0.005,0.001c0.063-0.058,0.144-0.092,0.227-0.101c0.38-0.17,1.546-0.903,1.879-1.252
	c-0.024-0.088-0.019-0.184,0.022-0.271c0.066-0.144,0.206-0.229,0.354-0.233c0.002-0.033,0.005-0.065,0.006-0.089
	c0.007-0.112,0.013-0.21,0.05-0.303c0.027-0.07,0.146-0.304,0.491-0.304c0.227,0,0.521,0.096,0.978,0.255
	c0.23,0.08,0.578,0.201,0.682,0.203c0.092-0.01,0.188-0.015,0.277-0.015c0.908,0,1.232,0.506,1.52,0.952
	c0.184,0.286,0.374,0.583,0.75,0.826c0.109,0.071,0.178,0.191,0.182,0.322c0.005,0.13-0.055,0.255-0.159,0.333
	c-0.366,0.276-0.656,0.52-0.911,0.734c-0.92,0.771-1.476,1.237-3.439,1.452c-0.972,0.106-1.801,0.24-2.603,0.369
	c-0.949,0.153-1.845,0.298-2.907,0.389C1597.172,81.357,1597.153,81.358,1597.133,81.358z M1597.853,80.151
	c-0.04,0.104-0.086,0.229-0.128,0.347c0.784-0.086,1.498-0.201,2.245-0.322c0.812-0.131,1.651-0.267,2.644-0.374
	c1.723-0.188,2.127-0.527,3.012-1.271c0.163-0.137,0.34-0.285,0.54-0.445c-0.254-0.248-0.419-0.505-0.561-0.726
	c-0.293-0.455-0.428-0.637-1.055-0.572c-0.269,0.001-0.569-0.09-1.013-0.244c-0.134-0.047-0.322-0.112-0.476-0.158
	c-0.032,0.229-0.122,0.537-0.399,0.645c-0.368,0.594-1.775,1.444-2.365,1.691c-0.17,0.153-0.447,0.177-0.804,0.145
	c-0.134-0.013-0.301-0.021-0.354-0.01c0.003,0.013,0.002,0.041,0.005,0.08c0.019,0.211-0.094,0.401-0.224,0.623
	c-0.053,0.09-0.141,0.24-0.152,0.296c-0.013,0.06-0.042,0.137-0.078,0.185C1598.489,80.3,1598.1,80.279,1597.853,80.151z"/>
<path id="ks_1_" fill="#8792A4" d="M1589.11,75.374c1.039,1.148,0.976,3.085,1.021,5.095c-3.3,0.062-6.591,0.01-9.889-0.136
	c0.084-1.705,0.167-3.41,0.25-5.116C1583.365,75.363,1586.234,75.401,1589.11,75.374"/>
<path fill="#FFFFFF" d="M1587.373,80.895c-2.307,0-4.712-0.055-7.148-0.162c-0.106-0.005-0.206-0.052-0.278-0.13
	c-0.071-0.079-0.108-0.183-0.104-0.289l0.25-5.116c0.005-0.106,0.052-0.206,0.131-0.277s0.182-0.104,0.289-0.103
	c2.176,0.111,4.435,0.165,6.904,0.165c0.562,0,1.125-0.003,1.688-0.009c0.117-0.023,0.224,0.047,0.301,0.132
	c1.048,1.159,1.08,2.942,1.114,4.83l0.011,0.524c0.002,0.106-0.038,0.209-0.111,0.286c-0.074,0.076-0.175,0.12-0.281,0.123
	C1589.216,80.886,1588.294,80.895,1587.373,80.895z M1580.661,79.95c3.114,0.13,6.109,0.173,9.062,0.126l-0.002-0.126
	c-0.03-1.654-0.059-3.221-0.797-4.175c-0.502,0.005-1.005,0.007-1.507,0.007c-2.332,0-4.479-0.048-6.545-0.146L1580.661,79.95z"/>
<path id="in_1_" fill="#8792A4" d="M1599.665,71.717c0.849-0.074,1.693-0.188,2.538-0.289c0.092,0.768,1.108,4.686,0.393,5.148
	c-0.153,0.323-1.103,0.555-1.079,1.272c0.005,0.146-2.375,0.72-2.737,0.734c-0.061-0.983,0.503-1.781,0.408-2.792
	c-0.122-1.303-0.244-2.605-0.366-3.908C1599.143,72.052,1599.424,71.996,1599.665,71.717"/>
<path fill="#FFFFFF" d="M1598.78,78.983c-0.211,0-0.386-0.164-0.399-0.376c-0.033-0.542,0.095-1.016,0.22-1.474
	c0.119-0.44,0.231-0.856,0.189-1.306l-0.366-3.908c-0.014-0.146,0.054-0.288,0.176-0.369s0.279-0.091,0.409-0.022
	c0.062,0.033,0.116,0.05,0.159,0.05l0,0c0.022,0,0.089,0,0.195-0.123c0.068-0.078,0.164-0.128,0.268-0.137
	c0.655-0.058,1.309-0.139,1.961-0.219l0.564-0.069c0.105-0.013,0.213,0.018,0.295,0.083c0.084,0.065,0.138,0.161,0.15,0.267
	c0.02,0.162,0.082,0.469,0.159,0.854c0.532,2.637,0.704,4.107,0.142,4.611c-0.111,0.161-0.285,0.277-0.467,0.398
	c-0.317,0.212-0.525,0.368-0.519,0.593c0.025,0.734-3.089,1.146-3.12,1.146C1598.79,78.982,1598.784,78.983,1598.78,78.983z
	 M1599.269,72.373l0.317,3.381c0.056,0.593-0.082,1.099-0.215,1.589c-0.07,0.262-0.139,0.514-0.174,0.768
	c0.588-0.122,1.557-0.368,1.938-0.507c0.1-0.521,0.546-0.819,0.854-1.025c0.089-0.06,0.224-0.149,0.254-0.189
	c0.032-0.066,0.073-0.108,0.135-0.148c0.297-0.38-0.229-2.99-0.403-3.849c-0.039-0.194-0.074-0.37-0.103-0.521l-0.185,0.022
	c-0.612,0.075-1.226,0.15-1.841,0.208C1599.643,72.287,1599.436,72.354,1599.269,72.373z"/>
<path id="il_2_" fill="#8792A4" d="M1594.049,74.54c0.095-0.194,0.473-1.8,0.44-1.775c0.722-0.57,1.575-1.122,0.341-1.913
	c1.119-0.065,2.234-0.138,3.352-0.236c0.733-0.063,0.857,3.588,0.901,4.066c0.184,1.958-0.478,3.523-0.712,5.115
	c-0.314,0.41-0.577-0.437-0.904,0.308c-0.438-0.417-1.981-2.004-1.657-2.605C1596.144,76.883,1593.406,75.812,1594.049,74.54"/>
<path fill="#FFFFFF" d="M1597.467,80.505c-0.102,0-0.201-0.039-0.276-0.111c-0.813-0.775-2.1-2.177-1.767-3.012
	c-0.083-0.132-0.378-0.385-0.578-0.558c-0.666-0.572-1.673-1.438-1.154-2.465c0.069-0.164,0.362-1.384,0.399-1.606
	c0-0.008,0-0.017,0.001-0.024c0.01-0.109,0.064-0.21,0.15-0.278l0.134-0.104c0.273-0.214,0.688-0.536,0.68-0.711
	c-0.002-0.028-0.029-0.182-0.441-0.446c-0.146-0.094-0.215-0.271-0.171-0.438c0.044-0.167,0.19-0.288,0.363-0.298
	c1.116-0.065,2.227-0.137,3.34-0.235c0.001,0,0.002,0,0.003,0c0.792,0,1.121,1.081,1.312,4.126l0.021,0.302
	c0.132,1.403-0.145,2.585-0.411,3.728c-0.116,0.501-0.231,0.99-0.304,1.483c-0.01,0.067-0.037,0.131-0.078,0.185
	c-0.338,0.444-0.669,0.274-0.841,0.193c-0.005,0.01-0.01,0.021-0.015,0.032c-0.053,0.119-0.16,0.205-0.288,0.231
	C1597.52,80.502,1597.493,80.505,1597.467,80.505z M1594.85,72.99c-0.082,0.646-0.436,1.713-0.441,1.725
	c-0.222,0.438,0.28,0.92,0.959,1.503c0.559,0.48,1.086,0.934,0.794,1.472c-0.044,0.209,0.472,0.992,1.265,1.811
	c0.182-0.133,0.434-0.13,0.6-0.065c0.072-0.412,0.169-0.824,0.267-1.244c0.252-1.08,0.513-2.197,0.393-3.472
	c-0.006-0.062-0.013-0.176-0.022-0.326c-0.158-2.54-0.403-3.201-0.528-3.372c-0.791,0.069-1.589,0.126-2.391,0.177
	c0.068,0.13,0.105,0.263,0.111,0.401c0.027,0.588-0.512,1.008-0.987,1.379L1594.85,72.99z"/>
<path id="id_2_" fill="#8792A4" d="M1562.122,69.393c2.437,0.5,4.877,0.944,7.336,1.313c0.129-0.882,1.003-3.45,0.615-4.199
	c-0.389-0.357-1.112-0.437-1.896-0.282c-0.832,0.164-0.753-1.619-1.168-2.25c-1.111,0.608-0.492-0.84-0.32-1.287
	c0.205-0.532-0.838-1.43-1.201-2.026c-0.317,0.057,0.939-2.957-0.948-2.834c-0.307,1.482-0.938,3.694-0.896,4.855
	c0.483,0.634,0.261,0.923-0.077,1.546c-0.183,0.334-0.632,1.657-0.576,1.581C1562.351,66.703,1562.34,68.35,1562.122,69.393"/>
<path fill="#FFFFFF" d="M1569.458,71.106c-0.02,0-0.04-0.002-0.06-0.005c-2.352-0.353-4.758-0.784-7.356-1.317
	c-0.104-0.021-0.196-0.083-0.254-0.172c-0.059-0.089-0.079-0.197-0.058-0.302c0.06-0.285,0.103-0.617,0.148-0.966
	c0.124-0.938,0.263-1.997,0.753-2.72c0.112-0.599,0.578-1.575,0.584-1.588l0.071-0.129c0.286-0.521,0.33-0.602,0.039-0.983
	c-0.05-0.065-0.078-0.146-0.081-0.228c-0.033-0.908,0.31-2.373,0.612-3.666c0.107-0.457,0.211-0.896,0.291-1.285
	c0.036-0.176,0.186-0.307,0.365-0.318l0.136-0.004c0.539,0,0.847,0.229,1.011,0.423c0.511,0.602,0.341,1.63,0.228,2.31
	c-0.017,0.105-0.037,0.229-0.048,0.313c0.105,0.169,0.269,0.361,0.437,0.562c0.497,0.597,1.012,1.214,0.786,1.799
	c-0.157,0.404-0.237,0.653-0.274,0.809c0.01-0.005,0.02-0.011,0.029-0.016c0.183-0.1,0.411-0.045,0.526,0.131
	c0.188,0.286,0.28,0.687,0.376,1.11c0.055,0.24,0.221,0.97,0.354,0.97c1.033-0.198,1.804-0.051,2.27,0.378
	c0.034,0.031,0.063,0.068,0.085,0.11c0.32,0.62,0.051,1.85-0.337,3.393c-0.107,0.43-0.202,0.805-0.238,1.048
	c-0.015,0.105-0.071,0.2-0.157,0.264C1569.627,71.079,1569.543,71.106,1569.458,71.106z M1562.584,69.079
	c2.302,0.466,4.453,0.852,6.555,1.174c0.048-0.213,0.11-0.463,0.178-0.731c0.203-0.811,0.573-2.287,0.427-2.769
	c-0.288-0.206-0.856-0.262-1.488-0.136c-0.936,0.187-1.142-0.813-1.314-1.574c-0.042-0.185-0.088-0.384-0.14-0.55
	c-0.312,0.076-0.571-0.009-0.72-0.227c-0.258-0.378-0.051-0.991,0.203-1.64c0.066-0.256-0.398-0.814-0.622-1.082
	c-0.175-0.209-0.342-0.412-0.462-0.593c-0.021-0.014-0.038-0.028-0.052-0.043c-0.163-0.193-0.125-0.424-0.05-0.883
	c0.078-0.47,0.223-1.343-0.049-1.663c-0.033-0.039-0.087-0.087-0.19-0.115c-0.067,0.304-0.144,0.63-0.223,0.966
	c-0.277,1.186-0.59,2.521-0.594,3.337c0.501,0.731,0.242,1.202-0.055,1.742l-0.069,0.126c-0.133,0.244-0.461,1.184-0.528,1.421
	c-0.006,0.07-0.03,0.141-0.074,0.202c-0.401,0.561-0.53,1.542-0.645,2.407C1562.644,68.667,1562.615,68.879,1562.584,69.079z"/>
<path id="ia_2_" fill="#8792A4" d="M1587.619,69.435c0.845-0.004,6.39-0.524,6.533,0.062c0.277,1.12,0.961,1.062,1.334,2.079
	c0.359,0.979-1.07,0.855-1.094,1.495c-0.021,0.616,0.023,0.716-0.344,1.469c-0.938-0.829-3.488-0.173-4.814-0.183
	C1588.043,74.349,1587.259,70.314,1587.619,69.435"/>
<path fill="#FFFFFF" d="M1594.049,74.94c-0.097,0-0.191-0.035-0.266-0.101c-0.239-0.212-0.707-0.319-1.39-0.319
	c-0.547,0-1.146,0.064-1.727,0.128c-0.516,0.056-1.003,0.109-1.403,0.109c-0.425-0.003-0.783-0.244-1.098-0.717
	c-0.822-1.236-1.255-3.933-0.916-4.759c0.062-0.149,0.207-0.247,0.368-0.248c0.185,0,0.599-0.027,1.133-0.061
	c1.042-0.065,2.47-0.155,3.617-0.155c1.537,0,2.064,0.142,2.174,0.583c0.12,0.488,0.321,0.688,0.575,0.941
	c0.253,0.252,0.541,0.538,0.745,1.096c0.33,0.897-0.396,1.268-0.743,1.445c-0.112,0.058-0.3,0.153-0.328,0.207l-0.005,0.195
	c-0.013,0.513-0.035,0.726-0.378,1.43c-0.055,0.112-0.159,0.192-0.281,0.217C1594.101,74.938,1594.075,74.94,1594.049,74.94z
	 M1592.394,73.72c0.624,0,1.107,0.078,1.479,0.242c0.104-0.264,0.107-0.399,0.114-0.696l0.007-0.209
	c0.019-0.506,0.448-0.725,0.762-0.885c0.441-0.226,0.427-0.266,0.356-0.458c-0.144-0.391-0.336-0.583-0.559-0.805
	c-0.27-0.268-0.573-0.569-0.754-1.188c-0.131-0.038-0.491-0.103-1.431-0.103c-1.122,0-2.535,0.089-3.567,0.154
	c-0.343,0.021-0.638,0.039-0.859,0.051c-0.075,0.79,0.254,2.818,0.891,3.775c0.176,0.264,0.324,0.358,0.405,0.358h0.001
	c0.384,0,0.85-0.05,1.342-0.104C1591.182,73.788,1591.804,73.72,1592.394,73.72z"/>
<path fill="#8792A4" d="M1568.235,93.477c1.224-0.198-0.785-1.58-0.714-0.41C1567.703,93.298,1567.942,93.435,1568.235,93.477
	C1568.312,93.464,1568.08,93.434,1568.235,93.477z"/>
<path fill="#8792A4" d="M1574.687,96.363c0.117-0.009,0.881-0.146,0.762-0.385c-0.13-0.259-1.182-0.711-1.398-0.526
	C1573.946,95.54,1574.53,96.241,1574.687,96.363C1574.827,96.353,1574.539,96.248,1574.687,96.363z"/>
<path fill="#8792A4" d="M1576.202,99.947c0.381,0.255,3.124-1.567,0.473-2.531C1575.305,96.918,1575.281,99.271,1576.202,99.947"/>
<path fill="#8792A4" d="M1571.656,94.849c0.673-0.202-0.223-1.072-0.499-0.909C1570.447,94.357,1571.038,94.621,1571.656,94.849
	C1571.78,94.812,1571.517,94.797,1571.656,94.849z"/>
<path fill="#8792A4" d="M1573.654,95.33c0.187-0.012,0.264-0.106,0.231-0.285c-0.577,0.109-0.775-0.248-1.158,0.16
	C1573.045,95.167,1573.354,95.209,1573.654,95.33C1573.804,95.275,1573.462,95.291,1573.654,95.33z"/>
<path fill="#8792A4" d="M1573.564,96.025c0.503-0.169-0.069-0.442-0.32-0.375C1573.351,95.775,1573.457,95.9,1573.564,96.025
	C1573.636,96.001,1573.459,95.897,1573.564,96.025z"/>
<path id="ga_2_" fill="#8792A4" d="M1604.302,82.766c0.556-0.078,1.111-0.155,1.667-0.233c-0.617,0.617,1.485,1.905,1.984,2.381
	c0.421,0.672,1.287,1.731,1.926,2.157c-0.464,0.606-0.598,1.585-0.586,2.318c-0.654-0.149-0.883,0.057-0.762,0.697
	c-0.297,0.058-1.803-0.186-2.414-0.142c-1.216,0.088-1.952,0.385-2.086-1.085c-0.191-0.981-0.22-1.541-0.508-2.517
	c-0.331-1.117-0.662-2.235-0.993-3.353C1603.121,82.915,1603.711,82.841,1604.302,82.766"/>
<path fill="#FFFFFF" d="M1608.398,90.495c-0.206,0-0.553-0.033-0.928-0.07c-0.48-0.048-1.017-0.11-1.324-0.081
	c-0.154,0.011-0.302,0.025-0.44,0.039c-0.245,0.024-0.466,0.046-0.661,0.046c-0.88,0-1.314-0.473-1.412-1.533
	c-0.058-0.285-0.104-0.565-0.146-0.829c-0.085-0.524-0.159-0.979-0.346-1.61l-0.993-3.353c-0.033-0.112-0.016-0.233,0.049-0.332
	c0.064-0.098,0.168-0.163,0.284-0.178l3.434-0.458c0.17-0.018,0.338,0.064,0.414,0.218c0.076,0.154,0.046,0.34-0.075,0.462
	c0.003,0.275,1.062,1.084,1.409,1.35c0.241,0.185,0.447,0.344,0.567,0.458c0.024,0.023,0.046,0.049,0.063,0.078
	c0.432,0.688,1.262,1.672,1.809,2.036c0.092,0.062,0.154,0.158,0.173,0.268c0.019,0.108-0.01,0.221-0.077,0.309
	c-0.328,0.429-0.516,1.202-0.503,2.069c0.001,0.123-0.054,0.239-0.148,0.316c-0.096,0.078-0.22,0.107-0.341,0.079
	c-0.105-0.023-0.194-0.036-0.262-0.036c-0.029-0.023-0.062,0.038-0.019,0.27c0.041,0.216-0.101,0.425-0.316,0.467
	C1608.558,90.488,1608.487,90.495,1608.398,90.495z M1606.288,89.539c0.338,0,0.819,0.046,1.26,0.09
	c0.201,0.02,0.394,0.039,0.557,0.052c0.015-0.162,0.064-0.325,0.18-0.464c0.1-0.121,0.287-0.264,0.619-0.273
	c0.03-0.501,0.133-1.196,0.441-1.777c-0.641-0.541-1.34-1.429-1.701-1.994c-0.109-0.098-0.276-0.225-0.468-0.371
	c-0.869-0.664-1.554-1.227-1.693-1.797l-2.435,0.324l0.859,2.901c0.201,0.681,0.278,1.157,0.368,1.708
	c0.042,0.257,0.086,0.529,0.147,0.846c0.08,0.846,0.295,0.846,0.621,0.846c0.172,0,0.366-0.021,0.581-0.042
	c0.146-0.015,0.301-0.029,0.463-0.042C1606.149,89.541,1606.215,89.539,1606.288,89.539z"/>
<path id="fl_2_" fill="#8792A4" d="M1609.293,89.389c0.472,1.513,1.498,3.017,2.305,4.334c-0.082-0.444-0.314-0.953-0.732-1.194
	c0.258,0.781,3.51,5.515,0.993,5.982c-0.913,0.169-1.866-2.136-2.556-2.735c-0.037,0.09-0.012,0.174,0.077,0.25
	c-1.007-0.397-0.603-1.698-0.67-1.73c-0.291-0.14-0.185,0.519-0.511,0.322c-0.29-0.175,0.021-1.184,0.017-1.431
	c-0.013-0.579-1.577-1.99-2.17-2.146c-0.369-0.098-1.724,1.069-1.974,0.714c-0.773-1.099-1.998-0.831-3.113-0.605
	c0.207-0.041-0.932-1.056-0.136-1.136c0.984-0.099,1.966-0.214,2.947-0.331c0.669-0.08,0.915,0.366,1.845,0.299
	c0.761-0.055,2.485,0.188,2.916,0.105C1608.41,89.445,1608.639,89.238,1609.293,89.389"/>
<path fill="#FFFFFF" d="M1611.762,98.92c-0.778,0-1.392-0.939-1.985-1.848c-0.148-0.228-0.3-0.459-0.439-0.649
	c-0.034-0.004-0.069-0.012-0.104-0.025c-0.698-0.275-0.896-0.86-0.938-1.344c-0.102-0.002-0.203-0.034-0.303-0.094
	c-0.445-0.269-0.321-0.945-0.222-1.489c0.021-0.119,0.043-0.22,0.044-0.279c-0.041-0.362-1.389-1.637-1.872-1.765
	c-0.043,0.021-0.367,0.207-0.581,0.329c-0.711,0.407-1.339,0.624-1.617,0.229c-0.311-0.441-0.72-0.639-1.327-0.639
	c-0.42,0-0.882,0.094-1.328,0.185c-0.009,0.002-0.018,0.003-0.026,0.004c-0.008,0.003-0.016,0.004-0.023,0.006l-0.001-0.003
	c-0.195,0.022-0.404-0.114-0.446-0.313c-0.001-0.009-0.003-0.017-0.004-0.024c-0.022-0.038-0.057-0.085-0.092-0.137
	c-0.202-0.298-0.48-0.705-0.305-1.082c0.068-0.146,0.227-0.329,0.591-0.366c0.982-0.098,1.96-0.213,2.939-0.33
	c0.409-0.049,0.707,0.058,0.964,0.15c0.255,0.091,0.5,0.182,0.899,0.146c0.394-0.027,1.027,0.017,1.628,0.062
	c0.326,0.025,0.641,0.049,0.889,0.057c0.013-0.168,0.062-0.34,0.182-0.484c0.14-0.171,0.468-0.361,1.099-0.217
	c0.139,0.031,0.25,0.135,0.292,0.271c0.31,0.991,0.883,2.006,1.468,2.96c0.6,0.395,0.793,1.118,0.85,1.42
	c0.011,0.059,0.008,0.118-0.006,0.173c0.864,1.648,1.549,3.266,1.062,4.289c-0.14,0.293-0.447,0.668-1.116,0.793
	C1611.907,98.908,1611.786,98.92,1611.762,98.92z M1609.304,95.375c0.096,0,0.189,0.035,0.263,0.099
	c0.283,0.246,0.56,0.67,0.88,1.161c0.363,0.555,0.97,1.485,1.315,1.484v0.4l0.023-0.402c0.367-0.068,0.484-0.232,0.54-0.35
	c0.42-0.882-0.795-3.117-1.378-4.191c-0.214-0.392-0.379-0.702-0.444-0.873c-0.562-0.898-1.153-1.922-1.514-2.96
	c-0.017-0.001-0.032-0.001-0.047-0.001c-0.034-0.03-0.06,0.044-0.019,0.27c0.041,0.217-0.101,0.425-0.316,0.467
	c-0.239,0.047-0.807,0.012-1.454-0.037c-0.552-0.041-1.142-0.092-1.51-0.062c-0.575,0.034-0.94-0.09-1.228-0.192
	c-0.217-0.078-0.381-0.139-0.598-0.108c-0.935,0.111-1.866,0.221-2.802,0.316c0.048,0.079,0.105,0.163,0.142,0.217
	c0.019,0.026,0.036,0.052,0.053,0.078c0.414-0.081,0.812-0.145,1.207-0.145c0.814,0,1.435,0.28,1.89,0.855
	c0.166-0.06,0.466-0.23,0.657-0.34c0.463-0.265,0.761-0.428,1.031-0.428c0.035,0,0.119,0.011,0.152,0.02
	c0.667,0.176,2.449,1.688,2.467,2.524c0.002,0.086-0.022,0.247-0.057,0.438c-0.013,0.067-0.031,0.168-0.048,0.274
	c0.038-0.009,0.08-0.015,0.125-0.015c0.06,0,0.193,0.033,0.247,0.06c0.268,0.128,0.239,0.4,0.223,0.563
	c-0.037,0.371-0.029,0.676,0.098,0.891c0.004-0.001,0.007-0.002,0.011-0.003C1609.243,95.379,1609.274,95.375,1609.304,95.375z"/>
<path id="fl_key_1_" fill="#8792A4" d="M1612.637,98.01c-0.112,0.216-0.251,0.507-0.384,0.696
	C1612.443,98.512,1612.57,98.279,1612.637,98.01z"/>
<path fill="#FFFFFF" d="M1612.253,99.106c-0.091,0-0.182-0.031-0.256-0.093c-0.16-0.134-0.191-0.368-0.071-0.538
	c0.098-0.139,0.196-0.337,0.284-0.512l0.07-0.138c0.094-0.181,0.308-0.26,0.496-0.191c0.189,0.071,0.296,0.273,0.248,0.471
	c-0.084,0.34-0.247,0.636-0.485,0.88C1612.461,99.065,1612.358,99.106,1612.253,99.106z"/>
<path id="de_1_" fill="#8792A4" d="M1614.086,72.862c0.079-0.27,0.222-0.354,0.428-0.25c-0.417,0.599,0.715,1.604,1.001,2.146
	C1614.277,75.438,1614.323,73.727,1614.086,72.862"/>
<path fill="#FFFFFF" d="M1615.014,75.314c-0.891,0-1.069-1.03-1.199-1.782c-0.036-0.203-0.069-0.4-0.114-0.564
	c-0.02-0.071-0.019-0.146,0.002-0.218c0.153-0.524,0.51-0.581,0.655-0.581c0.11,0,0.223,0.029,0.336,0.086
	c0.104,0.052,0.18,0.146,0.208,0.259s0.007,0.232-0.06,0.327c-0.131,0.188,0.361,0.819,0.599,1.122
	c0.178,0.229,0.339,0.439,0.428,0.608c0.103,0.192,0.03,0.432-0.161,0.537C1615.455,75.247,1615.229,75.314,1615.014,75.314z"/>
<path id="co_1_" fill="#8792A4" d="M1570.875,79.5c3.119,0.368,6.234,0.634,9.367,0.833c0.111-2.273,0.221-4.547,0.339-6.82
	c-2.547-0.125-5.103-0.556-7.643-0.629c-1.668-0.049-1.251,0.184-1.472,1.931C1571.27,76.376,1571.073,77.938,1570.875,79.5"/>
<path fill="#FFFFFF" d="M1580.242,80.733c-0.009,0-0.017-0.001-0.025-0.001c-3.36-0.214-6.431-0.487-9.389-0.835
	c-0.105-0.013-0.202-0.067-0.269-0.151c-0.065-0.084-0.095-0.19-0.081-0.296l0.592-4.686c0.044-0.349,0.062-0.636,0.076-0.87
	c0.062-1.007,0.212-1.416,1.452-1.416c0.106,0,0.223,0.002,0.352,0.006c1.384,0.039,2.787,0.186,4.145,0.327
	c1.151,0.12,2.342,0.244,3.506,0.302c0.106,0.005,0.206,0.053,0.277,0.131c0.071,0.079,0.108,0.184,0.103,0.289
	c-0.097,1.86-0.188,3.72-0.278,5.579l-0.061,1.24c-0.005,0.107-0.053,0.207-0.133,0.278
	C1580.436,80.697,1580.34,80.733,1580.242,80.733z M1571.323,79.149c2.7,0.311,5.503,0.56,8.54,0.758l0.041-0.833
	c0.084-1.729,0.169-3.456,0.258-5.184c-1.056-0.064-2.118-0.176-3.149-0.283c-1.343-0.14-2.731-0.285-4.085-0.324l-0.328-0.005
	c-0.463,0-0.557,0.049-0.575,0.064c-0.044,0.056-0.063,0.358-0.078,0.602c-0.016,0.248-0.035,0.552-0.082,0.92L1571.323,79.149z"/>
<path id="ct_1_" fill="#8792A4" d="M1618.067,67.871c-0.383,0.096-2.08,0.294-2.019,0.639c0.1,0.557,0.195,1.168,0.195,1.592
	C1617.035,69.255,1618.994,69.392,1618.067,67.871"/>
<path fill="#FFFFFF" d="M1616.243,70.502c-0.05,0-0.1-0.01-0.146-0.028c-0.153-0.061-0.254-0.208-0.254-0.372
	c0-0.417-0.107-1.067-0.188-1.521c-0.019-0.104,0.027-0.3,0.088-0.387c0.215-0.307,0.744-0.445,1.851-0.639
	c0.164-0.029,0.3-0.053,0.378-0.072c0.164-0.042,0.346,0.031,0.438,0.181c0.282,0.463,0.366,0.857,0.256,1.206
	c-0.166,0.522-0.698,0.752-1.213,0.975c-0.347,0.15-0.704,0.305-0.916,0.531C1616.458,70.457,1616.352,70.502,1616.243,70.502z
	 M1616.475,68.628c0.041,0.235,0.081,0.489,0.112,0.736c0.183-0.097,0.369-0.178,0.546-0.254c0.334-0.145,0.713-0.309,0.769-0.483
	c0.022-0.07,0.005-0.176-0.05-0.306c-0.039,0.007-0.079,0.014-0.121,0.021C1617.449,68.392,1616.765,68.512,1616.475,68.628z"/>
<path id="ca_1_" fill="#8792A4" d="M1563.03,82.313c0.235,0.882-0.113,0.46-0.293,1.232c-0.014,0.062-0.663,2.036-0.348,1.836
	c-0.682,0.434-3.361,0.006-3.861-0.495c0.568-2.126-4.252-3.736-3.708-4.871c0.444-0.925-2.281-4.312-1.075-5.309
	c-0.037,0.304,0.073,0.536,0.334,0.698c-0.248-0.918,0.035-1.549,0.979-0.678c-0.256-0.489-1.324-0.955-1.428-0.072
	c-1.167-1.099-0.839-3.147-1.018-4.635c-0.075-0.622,0.556-1.608,0.692-2.253c0.188-0.886,0.841-0.349,1.534-0.156
	c1.062,0.294,2.125,0.571,3.192,0.843c0.908,0.231-0.01,2.031-0.194,2.791c-0.079,0.327-0.698,2.073-0.528,2.32
	c0.697,1.017,1.396,2.034,2.093,3.051C1560.545,78.282,1562.512,80.383,1563.03,82.313
	C1563.051,82.396,1562.974,82.107,1563.03,82.313z"/>
<path fill="#FFFFFF" d="M1561.392,85.961c-0.963,0-2.639-0.282-3.147-0.792c-0.101-0.101-0.14-0.248-0.104-0.386
	c0.25-0.934-0.996-1.862-2.096-2.682c-1.055-0.786-1.967-1.466-1.586-2.259c0.105-0.22-0.332-1.188-0.593-1.766
	c-0.527-1.169-1.116-2.472-0.681-3.306c-0.824-0.934-0.865-2.299-0.902-3.513c-0.012-0.416-0.023-0.821-0.068-1.19
	c-0.059-0.485,0.179-1.048,0.409-1.592c0.126-0.298,0.244-0.579,0.289-0.791c0.149-0.707,0.594-0.812,0.846-0.812
	c0.254,0,0.504,0.099,0.77,0.203c0.134,0.053,0.274,0.109,0.418,0.148c1.059,0.293,2.119,0.57,3.184,0.841
	c0.255,0.064,0.451,0.216,0.569,0.436c0.306,0.572-0.005,1.457-0.279,2.238c-0.081,0.23-0.155,0.439-0.194,0.6
	c-0.02,0.08-0.069,0.242-0.134,0.447c-0.114,0.368-0.41,1.318-0.414,1.61l2.054,2.992c0.306,0.446,0.672,0.924,1.054,1.422
	c1.022,1.334,2.179,2.843,2.602,4.296c0.005,0.014,0.009,0.028,0.013,0.044c0.004,0.014,0.008,0.026,0.011,0.039
	c0.156,0.583,0.128,0.825-0.119,1.101c-0.059,0.064-0.114,0.126-0.165,0.346c-0.001,0.006-0.016,0.057-0.04,0.136
	c-0.254,0.818-0.342,1.202-0.37,1.379c0.004,0.005,0.007,0.011,0.011,0.016c0.118,0.187,0.063,0.434-0.123,0.553c0,0,0,0-0.001,0
	l0,0c0,0,0,0-0.001,0.001C1562.346,85.882,1561.95,85.961,1561.392,85.961z M1558.967,84.704c0.422,0.207,1.485,0.457,2.425,0.457
	c0.233,0,0.402-0.017,0.521-0.037c0.034-0.293,0.153-0.765,0.408-1.588c0.115-0.469,0.253-0.646,0.375-0.78
	c0.013-0.003,0.017-0.076-0.053-0.337v-0.001c-0.001-0.001-0.001-0.002-0.001-0.002c-0.366-1.343-1.496-2.817-2.493-4.118
	c-0.39-0.51-0.765-0.998-1.078-1.455l-2.093-3.051c-0.192-0.281-0.124-0.721,0.35-2.242c0.057-0.183,0.103-0.327,0.12-0.398
	c0.044-0.181,0.126-0.417,0.217-0.677c0.164-0.466,0.469-1.333,0.329-1.595c-1.132-0.311-2.198-0.588-3.262-0.883
	c-0.17-0.048-0.338-0.113-0.498-0.176c-0.176-0.069-0.374-0.147-0.476-0.147c0-0.001,0-0.002,0-0.002
	c-0.002,0-0.034,0.044-0.062,0.179c-0.061,0.288-0.194,0.604-0.336,0.938c-0.18,0.427-0.384,0.91-0.351,1.185
	c0.047,0.392,0.061,0.82,0.073,1.262c0.029,0.98,0.061,1.988,0.485,2.707c0.147-0.118,0.336-0.184,0.553-0.184
	c0.485,0,1.064,0.353,1.291,0.784c0.09,0.173,0.043,0.385-0.111,0.503c-0.154,0.119-0.372,0.109-0.515-0.023
	c-0.189-0.176-0.315-0.251-0.388-0.284c-0.013,0.102-0.008,0.293,0.065,0.563c0.043,0.159-0.016,0.327-0.147,0.426
	c-0.132,0.097-0.311,0.104-0.449,0.019c-0.003-0.002-0.007-0.004-0.01-0.006c0.095,0.584,0.45,1.372,0.738,2.009
	c0.476,1.053,0.852,1.885,0.584,2.44c-0.096,0.199,0.876,0.924,1.344,1.271C1557.68,82.322,1559.101,83.381,1558.967,84.704z"/>
<path id="az_1_" fill="#8792A4" d="M1570.875,79.5c-2.209-0.291-4.414-0.608-6.605-1.011c-0.017,0.484-0.113,0.951-0.292,1.401
	c-0.33,0.495-0.375-0.285-0.771-0.1c-0.229,0.108-0.312,1.614-0.323,1.928c0,1.137,0.57,1.429-0.407,2.433
	c-0.243,0.249-0.358,1.831-0.457,1.772c0.982,0.583,1.977,1.148,2.97,1.714c1.244,0.709,2.008,1.056,3.416,1.255
	c1.355,0.192,1.256,0.209,1.426-1.13C1570.179,85.009,1570.527,82.254,1570.875,79.5"/>
<path fill="#FFFFFF" d="M1569.241,89.387L1569.241,89.387c-0.188,0-0.445-0.034-0.806-0.086c-1.534-0.217-2.354-0.58-3.646-1.315
	c-1.039-0.592-2.012-1.146-2.975-1.717l-0.001-0.001c-0.19-0.112-0.253-0.358-0.14-0.548c0.006-0.01,0.012-0.02,0.019-0.028
	c0.022-0.094,0.045-0.244,0.073-0.414c0.121-0.729,0.21-1.188,0.423-1.405c0.534-0.549,0.498-0.734,0.4-1.231
	c-0.048-0.24-0.106-0.538-0.106-0.922c0.064-2.06,0.394-2.215,0.552-2.289c0.249-0.116,0.507-0.056,0.661,0.054
	c0.103-0.315,0.162-0.658,0.174-1.007c0.003-0.116,0.058-0.226,0.148-0.299s0.207-0.1,0.323-0.082
	c2.393,0.439,4.776,0.77,6.585,1.008c0.219,0.028,0.373,0.229,0.345,0.446l-1.075,8.51
	C1570.103,88.83,1570.035,89.387,1569.241,89.387z M1562.497,85.742c0.869,0.512,1.746,1.011,2.623,1.51
	c1.289,0.735,2.015,1.057,3.34,1.244c0.398,0.057,0.62,0.091,0.781,0.091c0.066,0,0.089-0.007,0.09-0.007
	c0.001-0.036,0.036-0.332,0.071-0.617l1.026-8.118c-1.649-0.22-3.705-0.511-5.798-0.884c-0.049,0.368-0.144,0.729-0.281,1.077
	c-0.096,0.16-0.27,0.42-0.575,0.42c-0.153,0-0.27-0.065-0.355-0.137c-0.065,0.349-0.121,0.943-0.136,1.41
	c0.001,0.293,0.047,0.527,0.091,0.755c0.13,0.661,0.158,1.153-0.612,1.944c-0.062,0.108-0.159,0.695-0.206,0.978
	C1562.535,85.532,1562.517,85.644,1562.497,85.742z"/>
<path id="ar_2_" fill="#8792A4" d="M1596.122,83.595c0.269-0.558,0.511-1.152,0.667-1.761c-0.246,0.07-0.539,0-0.781,0.083
	c-0.096-0.21,0.671-0.925-0.072-0.877c-0.723,0.046-1.445,0.093-2.168,0.139c-1.203,0.077-2.41,0.106-3.615,0.134
	c0.314,1.642,0.3,3.237,0.311,4.905c0.606,0.001,0.82,0.355,0.647,1.014c0.848-0.031,4.087,0.236,4.067-0.661
	C1595.154,85.506,1595.57,84.571,1596.122,83.595z"/>
<path fill="#FFFFFF" d="M1592.617,87.646L1592.617,87.646c-0.294,0-0.577-0.005-0.826-0.01l-0.498-0.007l-0.168,0.002
	c-0.109,0.023-0.247-0.051-0.327-0.149c-0.079-0.099-0.106-0.229-0.074-0.352c0.066-0.254,0.049-0.398,0.013-0.445
	c-0.025-0.032-0.109-0.066-0.273-0.066c-0.219-0.001-0.397-0.178-0.399-0.397l-0.002-0.365c-0.009-1.533-0.018-2.982-0.302-4.468
	c-0.022-0.115,0.008-0.235,0.081-0.326c0.074-0.092,0.185-0.146,0.303-0.148c1.336-0.031,2.448-0.06,3.599-0.134l2.168-0.139
	c0.005,0,0.009,0,0.013,0c0.428,0,0.589,0.149,0.664,0.275c0.109,0.184,0.087,0.373,0.025,0.546
	c0.025-0.003,0.048-0.007,0.068-0.013c0.14-0.038,0.287-0.001,0.389,0.099c0.103,0.101,0.144,0.248,0.107,0.387
	c-0.147,0.567-0.374,1.167-0.694,1.833c-0.563,0.999-0.927,1.842-0.905,2.793c0.005,0.206-0.072,0.396-0.223,0.549
	C1594.988,87.485,1594.169,87.646,1592.617,87.646z M1591.569,86.832l0.237,0.004c0.245,0.005,0.522,0.01,0.812,0.01
	c1.857,0,2.134-0.25,2.17-0.3c-0.037-1.167,0.453-2.205,0.987-3.148c0.187-0.392,0.342-0.765,0.464-1.121
	c-0.039,0.004-0.073,0.01-0.101,0.019c-0.194,0.073-0.408-0.025-0.494-0.212c-0.101-0.222-0.016-0.434,0.083-0.625l-1.934,0.12
	c-1.028,0.065-2.022,0.097-3.167,0.123c0.22,1.391,0.228,2.735,0.235,4.149v0.018c0.259,0.072,0.416,0.208,0.509,0.329
	C1591.501,86.367,1591.568,86.58,1591.569,86.832z"/>
<path id="al_1_" fill="#8792A4" d="M1602.531,82.99c-1.075,0.111-2.149,0.223-3.225,0.334c-0.287,0.029-0.162,2.58-0.169,2.916
	c-0.016,0.817-0.135,1.705-0.025,2.519c0.095,0.707,0.205,3.517,0.824,1.849c0.68,1.92,0.76-0.631,0.678-0.573
	c0.434-0.404,3.031-0.338,3.605-0.406c-0.293-1.193-0.355-2.066-0.667-3.188C1603.263,85.279,1602.87,84.137,1602.531,82.99"/>
<path fill="#FFFFFF" d="M1600.369,91.725c-0.198,0-0.353-0.105-0.484-0.289c-0.083,0.059-0.18,0.093-0.293,0.093
	c-0.592,0-0.696-0.812-0.829-2.249c-0.018-0.191-0.033-0.356-0.048-0.468c-0.081-0.601-0.046-1.223-0.012-1.824
	c0.015-0.256,0.029-0.509,0.033-0.755c0.002-0.06-0.002-0.19-0.006-0.365c-0.056-2.394,0.033-2.888,0.533-2.94l3.226-0.334
	c0.195-0.027,0.37,0.099,0.425,0.284c0.111,0.377,0.229,0.755,0.348,1.133c0.236,0.76,0.482,1.546,0.678,2.333
	c0.172,0.616,0.269,1.154,0.37,1.724c0.082,0.458,0.166,0.93,0.298,1.466c0.027,0.111,0.006,0.229-0.06,0.323
	c-0.065,0.095-0.168,0.156-0.282,0.17c-0.159,0.019-0.469,0.028-0.846,0.04c-0.543,0.016-1.876,0.055-2.38,0.199
	c-0.001,0.193-0.019,0.486-0.067,0.739C1600.881,91.482,1600.678,91.725,1600.369,91.725z M1599.936,90.207c0.001,0,0.002,0,0.003,0
	c0.118,0.001,0.227,0.054,0.301,0.14c0.002-0.067,0.002-0.127,0-0.171c-0.056-0.148-0.021-0.32,0.102-0.435
	c0.364-0.339,1.275-0.424,3.056-0.476c0.117-0.004,0.227-0.007,0.326-0.01c-0.079-0.369-0.141-0.713-0.201-1.049
	c-0.098-0.551-0.19-1.07-0.355-1.66c-0.193-0.775-0.435-1.55-0.668-2.299c-0.086-0.275-0.172-0.551-0.256-0.826l-2.677,0.277
	c-0.05,0.314-0.062,1.034-0.035,2.149c0.005,0.191,0.008,0.335,0.007,0.399c-0.005,0.256-0.021,0.519-0.035,0.784
	c-0.032,0.564-0.064,1.147,0.006,1.673c0.016,0.119,0.032,0.296,0.052,0.501c0.023,0.256,0.066,0.72,0.124,1.091
	C1599.753,90.24,1599.842,90.207,1599.936,90.207z"/>
<path fill="#8792A4" d="M1560.214,98.334c-0.006,0.009,0.418-0.416,0.446-0.097C1560.671,98.353,1560.17,98.535,1560.214,98.334
	C1560.281,98.241,1560.181,98.486,1560.214,98.334z"/>
<path fill="#8792A4" d="M1553.634,94.115c-0.227,0.062-0.285-0.021-0.176-0.253c0.013,0.011,1.089,0.455,0.933,0.555
	C1553.678,94.871,1554.199,93.984,1553.634,94.115C1553.438,94.29,1553.795,94.078,1553.634,94.115z"/>
<path fill="#8792A4" d="M1554.7,96.946c-0.192-0.335,0.733-0.359,0.565,0.034C1555.102,97.17,1554.913,97.158,1554.7,96.946
	C1554.657,96.872,1554.825,97.031,1554.7,96.946z"/>
<path fill="#8792A4" d="M1555.247,101.181c0.077-0.038,0.646-0.59,0.676-0.138C1555.935,101.234,1555.17,101.398,1555.247,101.181
	C1555.342,101.135,1555.211,101.283,1555.247,101.181z"/>
<path fill="#8792A4" d="M1560.182,99.152c-0.615,0.462-0.718-0.336-0.228-0.533C1560.767,98.29,1560.464,98.765,1560.182,99.152
	C1560.134,99.188,1560.254,99.054,1560.182,99.152z"/>
<path fill="#8792A4" d="M1553.865,101.901c-0.033,0.141-0.569,0.392-0.617,0.416
	C1553.341,102.244,1553.683,101.671,1553.865,101.901C1553.831,102.043,1553.735,101.737,1553.865,101.901z"/>
<path fill="#8792A4" d="M1553.904,102.09c0.035-0.042,0.388-0.517,0.616-0.502C1554.958,101.614,1553.782,102.139,1553.904,102.09z"
	/>
<path fill="#8792A4" d="M1567.082,97.171c-1.329-0.452,1.066-0.167,0.412-0.058C1567.243,97.155,1567.198,97.267,1567.082,97.171
	C1566.968,97.132,1567.128,97.209,1567.082,97.171z"/>
<path fill="#8792A4" d="M1567.662,97.025c-0.166-0.157-0.285-0.343-0.357-0.559c0.115,0.076,1.226,0.549,0.475,0.89
	C1567.803,97.223,1567.764,97.112,1567.662,97.025C1567.563,96.938,1567.819,97.073,1567.662,97.025z"/>
<path fill="#8792A4" d="M1567.721,97.766c-0.099-0.068-0.447-0.459-0.402-0.643C1567.693,97.167,1568.33,98.372,1567.721,97.766
	C1567.581,97.668,1567.801,97.845,1567.721,97.766z"/>
<path fill="#8792A4" d="M1568.174,97.866c-0.021-0.027-0.318-0.477-0.171-0.461C1568.303,97.439,1568.156,97.847,1568.174,97.866
	C1568.076,97.747,1568.212,97.903,1568.174,97.866z"/>
<path fill="#8792A4" d="M1568.364,97.636c-0.014-0.005-0.273-0.392-0.273-0.393C1568.28,96.828,1568.423,97.443,1568.364,97.636"/>
<path fill="#8792A4" d="M1568.546,97.804c-0.599,0.022,1.478,0.11,0.954,0.764C1569.234,98.9,1568.642,97.86,1568.546,97.804"/>
<path fill="#8792A4" d="M1568.858,97.505c0.116,0.04,0.191,0.118,0.228,0.234C1568.824,97.812,1568.749,97.734,1568.858,97.505
	C1568.903,97.558,1568.777,97.517,1568.858,97.505z"/>
<path fill="#8792A4" d="M1569.484,98.08c-0.132-0.021-0.106-0.448-0.1-0.455C1569.437,97.575,1569.85,97.899,1569.484,98.08
	C1569.338,98.058,1569.547,98.049,1569.484,98.08z"/>
<path fill="#8792A4" d="M1564.526,95.754c-0.053-0.144,1.398,0.275,1.675,0.661c0.483-0.921,0.54-0.898,1.494-0.293
	c0.103,0.065,3.189,1.778,2.339,2.175c-0.244,0.113-0.221-0.415-0.301-0.525c-0.484-0.676-0.316,0.137-0.479,0.218
	c0.191-0.097-1.24-1.115-1.308-1.279c-0.375-0.9-1.004,0.306-1.311,0.092c-0.907-0.635-1.485-0.542-2.388-0.665
	c-0.573-0.078-2.002,0.3-2.464-0.298c-0.03,0.207,0.257,0.639,0.025,0.816c-0.26,0.197-1.199,0.771-1.203,0.839
	c0.009-0.147,0.526-1.643,0.56-1.559c-0.17-0.438-1.405,1.519-1.472,1.735c1.104,1.59-3,2.446-3.668,3.347
	c-0.011-0.01,2.991-2.053,2.609-3.015c-0.084-0.21-0.464,0.361-0.662-0.084c-0.038,0.129-0.06,0.262-0.065,0.396
	c0.289-0.216-1.392-0.572-1.218-0.212c-0.108-0.225,0.249-0.877-0.129-1.05c-0.595-0.275-1.201,0.234-0.907-0.881
	c-0.859,0.077-0.102-1.531,0.356-1.649c-0.095,0.024,0.94-0.001,0.74-0.141c0.481,0.337,0.247-1.055,0.282-1.068
	c-1.044,0.381-0.199,0.062-1.023,0.216c-0.346,0.064-1.175-0.499-0.578-0.604c-0.19-0.051-0.349-0.15-0.473-0.299
	c-0.043-0.041,1.209-0.825,1.278-0.691c0.229,0.441,0.121,0.556,0.851,0.295c-0.385-0.172-0.789-0.965-0.994-1.194
	c-0.844-0.773,0.294-1.444,1.064-1.91c0.815-0.488,0.901-0.581,1.305-0.422c0.749,0.293,3.85-0.444,4.162,0.615
	C1563.259,91.465,1563.892,93.609,1564.526,95.754z"/>
</svg>
