<?xml version="1.0" encoding="utf-8"?>
<!-- Generator: Adobe Illustrator 16.0.0, SVG Export Plug-In . SVG Version: 6.00 Build 0)  -->
<!DOCTYPE svg PUBLIC "-//W3C//DTD SVG 1.1//EN" "http://www.w3.org/Graphics/SVG/1.1/DTD/svg11.dtd" [
	<!ENTITY ns_extend "http://ns.adobe.com/Extensibility/1.0/">
	<!ENTITY ns_ai "http://ns.adobe.com/AdobeIllustrator/10.0/">
	<!ENTITY ns_graphs "http://ns.adobe.com/Graphs/1.0/">
	<!ENTITY ns_vars "http://ns.adobe.com/Variables/1.0/">
	<!ENTITY ns_imrep "http://ns.adobe.com/ImageReplacement/1.0/">
	<!ENTITY ns_sfw "http://ns.adobe.com/SaveForWeb/1.0/">
	<!ENTITY ns_custom "http://ns.adobe.com/GenericCustomNamespace/1.0/">
	<!ENTITY ns_adobe_xpath "http://ns.adobe.com/XPath/1.0/">
]>
<svg version="1.1" id="Layer_1" xmlns:x="&ns_extend;" xmlns:i="&ns_ai;" xmlns:graph="&ns_graphs;"
	 xmlns="http://www.w3.org/2000/svg" xmlns:xlink="http://www.w3.org/1999/xlink" x="0px" y="0px" width="71.403px"
	 height="63.283px" viewBox="1188.023 46.117 71.403 63.283" enable-background="new 1188.023 46.117 71.403 63.283"
	 xml:space="preserve">
<metadata>
	<sfw  xmlns="&ns_sfw;">
		<slices></slices>
		<sliceSourceBounds  height="16383" width="16383" bottomLeftOrigin="true" x="-7682" y="-7691"></sliceSourceBounds>
		<optimizationSettings>
			<targetSettings  targetSettingsID="0" fileFormat="PNG24Format">
				<PNG24Format  transparency="true" interlaced="false" filtered="false" noMatteColor="false" matteColor="#FFFFFF">
					</PNG24Format>
			</targetSettings>
		</optimizationSettings>
	</sfw>
</metadata>
<rect x="1193.327" y="104.32" fill="#8792A4" width="61.601" height="3.423"/>
<circle fill="#8792A4" cx="1208.728" cy="61.542" r="8.556"/>
<path fill="#8792A4" d="M1198.461,61.543c0-0.289,0.02-0.574,0.043-0.856h-5.177v1.711h5.178
	C1198.481,62.116,1198.461,61.831,1198.461,61.543z"/>
<path fill="#8792A4" d="M1202.102,53.707l-3.892-3.892l-1.21,1.209l3.893,3.893C1201.261,54.48,1201.666,54.075,1202.102,53.707z"/>
<path fill="#8792A4" d="M1208.728,51.275c0.289,0,0.573,0.02,0.855,0.043v-5.176h-1.71v5.177
	C1208.155,51.296,1208.439,51.275,1208.728,51.275z"/>
<path fill="#8792A4" d="M1216.564,54.916l3.426-3.426l-1.21-1.21l-3.426,3.426C1215.79,54.075,1216.194,54.48,1216.564,54.916z"/>
<path fill="#8792A4" d="M1215.354,69.378l3.426,3.427l1.21-1.21l-3.426-3.427C1216.196,68.604,1215.79,69.01,1215.354,69.378z"/>
<path fill="#8792A4" d="M1218.951,60.687c0.023,0.282,0.043,0.566,0.043,0.856c0,0.289-0.02,0.573-0.043,0.855h5.177v-1.711
	L1218.951,60.687L1218.951,60.687z"/>
<path fill="#8792A4" d="M1208.728,71.81c-0.289,0-0.573-0.02-0.855-0.043v5.176h1.711v-5.177
	C1209.301,71.789,1209.017,71.81,1208.728,71.81z"/>
<path fill="#8792A4" d="M1200.893,68.168L1197,72.061l1.21,1.209l3.892-3.892C1201.666,69.01,1201.261,68.604,1200.893,68.168z"/>
<path fill="#8792A4" d="M1198.461,92.343h-3.422c-0.944,0-1.712,0.765-1.712,1.711v6.845h6.845v-6.845
	C1200.172,93.107,1199.406,92.343,1198.461,92.343z"/>
<path fill="#8792A4" d="M1212.15,82.076h-3.422c-0.944,0-1.711,0.765-1.711,1.711v17.111h6.845l-0.001-17.111
	C1213.862,82.842,1213.094,82.076,1212.15,82.076z"/>
<path fill="#8792A4" d="M1225.84,85.498h-3.424c-0.943,0-1.711,0.766-1.711,1.712l0.001,13.688h6.845V87.21
	C1227.551,86.264,1226.783,85.498,1225.84,85.498z"/>
<path fill="#8792A4" d="M1239.529,72.665h-3.423c-0.944,0-1.711,0.766-1.711,1.711v26.522h6.845V74.376
	C1241.24,73.431,1240.473,72.665,1239.529,72.665z"/>
<path fill="#8792A4" d="M1253.217,52.131h-3.422c-0.944,0-1.712,0.766-1.712,1.712v47.056h6.845V53.843
	C1254.928,52.896,1254.161,52.131,1253.217,52.131z"/>
</svg>
