<?xml version="1.0" encoding="utf-8"?>
<!-- Generator: Adobe Illustrator 16.0.0, SVG Export Plug-In . SVG Version: 6.00 Build 0)  -->
<!DOCTYPE svg PUBLIC "-//W3C//DTD SVG 1.1//EN" "http://www.w3.org/Graphics/SVG/1.1/DTD/svg11.dtd" [
	<!ENTITY ns_extend "http://ns.adobe.com/Extensibility/1.0/">
	<!ENTITY ns_ai "http://ns.adobe.com/AdobeIllustrator/10.0/">
	<!ENTITY ns_graphs "http://ns.adobe.com/Graphs/1.0/">
	<!ENTITY ns_vars "http://ns.adobe.com/Variables/1.0/">
	<!ENTITY ns_imrep "http://ns.adobe.com/ImageReplacement/1.0/">
	<!ENTITY ns_sfw "http://ns.adobe.com/SaveForWeb/1.0/">
	<!ENTITY ns_custom "http://ns.adobe.com/GenericCustomNamespace/1.0/">
	<!ENTITY ns_adobe_xpath "http://ns.adobe.com/XPath/1.0/">
]>
<svg version="1.1" id="Layer_1" xmlns:x="&ns_extend;" xmlns:i="&ns_ai;" xmlns:graph="&ns_graphs;"
	 xmlns="http://www.w3.org/2000/svg" xmlns:xlink="http://www.w3.org/1999/xlink" x="0px" y="0px" width="71.138px"
	 height="62.205px" viewBox="828.35 47.196 71.138 62.205" enable-background="new 828.35 47.196 71.138 62.205"
	 xml:space="preserve">
<metadata>
	<sfw  xmlns="&ns_sfw;">
		<slices></slices>
		<sliceSourceBounds  height="16383" width="16383" bottomLeftOrigin="true" x="-7682" y="-7691"></sliceSourceBounds>
		<optimizationSettings>
			<targetSettings  targetSettingsID="0" fileFormat="PNG24Format">
				<PNG24Format  transparency="true" interlaced="false" filtered="false" noMatteColor="false" matteColor="#FFFFFF">
					</PNG24Format>
			</targetSettings>
		</optimizationSettings>
	</sfw>
</metadata>
<g>
	<polygon fill="#8792A4" points="882.631,86.801 882.631,95.133 864.671,105.861 846.206,95.133 846.206,86.801 864.781,95.994 	"/>
	<path fill="#8792A4" d="M864.76,93.736l34.728-17.314l-34.729-14.658L829.06,76.422l7.791,3.779
		c-0.177,4.486-0.664,13.238-1.23,16.068c-0.468,2.34-2.731,5.676-6.972,9.914c-0.163,0.162-0.369,0.402-0.276,0.627
		c0.098,0.232,0.441,0.232,0.556,0.232c1.095,0,4.082-1.01,5.633-2.045c0.228-0.15,0.434-0.227,0.616-0.227
		c0.68,0,1.075,1.119,1.459,2.203c0.362,1.029,0.706,2.002,1.334,2.316c0.095,0.047,0.192,0.07,0.292,0.07
		c0.219,0,0.427-0.115,0.629-0.346c1.157-1.311,2.032-6.535,1.435-11.309c-0.544-4.354-0.271-11.773,0.149-15.75L864.76,93.736z
		 M864.293,69.062c1.602,0,2.906,1.305,2.906,2.907s-1.305,2.905-2.906,2.905s-2.905-1.303-2.905-2.905
		S862.692,69.062,864.293,69.062z"/>
</g>
</svg>
