<?xml version="1.0" encoding="utf-8"?>
<!-- Generator: Adobe Illustrator 16.0.0, SVG Export Plug-In . SVG Version: 6.00 Build 0)  -->
<!DOCTYPE svg PUBLIC "-//W3C//DTD SVG 1.1//EN" "http://www.w3.org/Graphics/SVG/1.1/DTD/svg11.dtd" [
	<!ENTITY ns_extend "http://ns.adobe.com/Extensibility/1.0/">
	<!ENTITY ns_ai "http://ns.adobe.com/AdobeIllustrator/10.0/">
	<!ENTITY ns_graphs "http://ns.adobe.com/Graphs/1.0/">
	<!ENTITY ns_vars "http://ns.adobe.com/Variables/1.0/">
	<!ENTITY ns_imrep "http://ns.adobe.com/ImageReplacement/1.0/">
	<!ENTITY ns_sfw "http://ns.adobe.com/SaveForWeb/1.0/">
	<!ENTITY ns_custom "http://ns.adobe.com/GenericCustomNamespace/1.0/">
	<!ENTITY ns_adobe_xpath "http://ns.adobe.com/XPath/1.0/">
]>
<svg version="1.1" id="Layer_1" xmlns:x="&ns_extend;" xmlns:i="&ns_ai;" xmlns:graph="&ns_graphs;"
	 xmlns="http://www.w3.org/2000/svg" xmlns:xlink="http://www.w3.org/1999/xlink" x="0px" y="0px" width="71.274px"
	 height="63.283px" viewBox="1458.896 45.921 71.274 63.283" enable-background="new 1458.896 45.921 71.274 63.283"
	 xml:space="preserve">
<metadata>
	<sfw  xmlns="&ns_sfw;">
		<slices></slices>
		<sliceSourceBounds  height="16383" width="16383" bottomLeftOrigin="true" x="-7682" y="-7691"></sliceSourceBounds>
		<optimizationSettings>
			<targetSettings  targetSettingsID="0" fileFormat="PNG24Format">
				<PNG24Format  transparency="true" interlaced="false" filtered="false" noMatteColor="false" matteColor="#FFFFFF">
					</PNG24Format>
			</targetSettings>
		</optimizationSettings>
	</sfw>
</metadata>
<g id="Your_Icon_2_">
	<g>
		<path fill="#8792A4" d="M1507.938,98.812V75.009h2.814v-1.587h-30.696v1.587h3.147v23.803h-2.855v1.193h30.694v-1.193H1507.938z
			 M1504.703,98.812h-4.035V75.009h4.035V98.812z M1497.434,98.812h-3.881V75.009h3.881V98.812z M1486.435,75.009h3.887v23.803
			h-3.887V75.009z"/>
		<g>
			<rect x="1476.991" y="101.741" fill="#8792A4" width="37.408" height="2.834"/>
		</g>
		<g>
			<rect x="1474.038" y="106.366" fill="#8792A4" width="42.733" height="2.838"/>
		</g>
		<g>
			<path fill="#8792A4" d="M1479.97,72.186c0-8.562,6.934-15.495,15.491-15.495c8.559,0,15.496,6.934,15.496,15.495"/>
		</g>
		<g>
			<g>
				<rect x="1494.775" y="46.241" fill="#8792A4" width="1.195" height="11.171"/>
			</g>
			<g>
				<rect x="1494.775" y="46.241" fill="#8792A4" width="8.547" height="5.644"/>
			</g>
		</g>
	</g>
</g>
</svg>
