<?xml version="1.0" encoding="utf-8"?>
<!-- Generator: Adobe Illustrator 17.0.2, SVG Export Plug-In . SVG Version: 6.00 Build 0)  -->
<!DOCTYPE svg PUBLIC "-//W3C//DTD SVG 1.1//EN" "http://www.w3.org/Graphics/SVG/1.1/DTD/svg11.dtd">
<svg version="1.1" id="Layer_1" xmlns="http://www.w3.org/2000/svg" xmlns:xlink="http://www.w3.org/1999/xlink" x="0px" y="0px"
	 width="70.671px" height="63.283px" viewBox="1823.213 46.117 70.671 63.283"
	 enable-background="new 1823.213 46.117 70.671 63.283" xml:space="preserve">
<path fill="#8893A4" d="M1857.448,63.066c1.968-0.966,3.779-0.794,6.279,0.327c1.531,1.189,1.816,2.533,2.497,4.306
	c0.71,1.85,1.268,3.761,1.839,5.661c0.131,0.436,0.291,0.648,0.736,0.788c1.719,0.543,3.43,0.94,5.27,0.97
	c1.975,0.032,3.715,0.626,5.163,2.037c0.552,0.538,5.11,1.393,7.938,3.215c0.09-0.933,0.138-1.879,0.138-2.835
	c0-16.057-13.017-29.074-29.074-29.074c-16.057,0-29.074,13.017-29.074,29.074c0,0.513,0.014,1.023,0.04,1.529
	c1.948-0.821,5.601-1.274,5.681-1.731c0.905-5.2,1.412-3.859,3.348-8.787c0.991-2.523,1.201-4.088,3.083-6.101
	c1.156-1.236,2.495-2.325,4.483-2.328c1.72,0.104,3.707,0.776,5.408,1.774c2.265,1.589,3.222,5.034,4.155,7.889
	c0.616,1.885,1.054,3.829,1.539,5.754c0.125,0.495,0.29,0.831,0.865,0.833c0.232,0.001,0.52,0.033,0.685,0.169
	c0.385,0.318,0.838,0.651,1.032,1.081c0.248,0.549-0.008,1.123-0.548,1.434c-1.145,0.659-2.267,1.401-3.488,1.879
	c-3.674,1.438-7.401,2.741-11.087,4.147c-6.38,2.621-6.683,7.4-6.38,9.082c0.494,3.911,2.333,6.119,3.597,7.205
	c4.718,3.305,10.462,5.246,16.66,5.246c9.115,0,17.249-4.196,22.58-10.76c-0.198,0.167-0.39,0.322-0.572,0.463
	c-3.596,2.765-9.153,4.442-16.852,2.915c-3.601-0.647-7.195-1.347-10.495-3.016c-0.863-0.436-1.692-1.009-2.4-1.667
	c-1.425-1.323-1.568-2.97-0.504-4.601c1.008-1.544,2.452-2.596,3.981-3.588c2.016-1.309,4.01-2.669,5.892-4.16
	c0.774-0.614,1.359-1.564,1.805-2.471c0.67-1.362,0.158-2.658-1.199-3.334c-0.581-0.289-1.252-0.392-1.864-0.627
	c-0.253-0.097-0.616-0.285-0.662-0.491c-0.689-3.056-1.503-6.069-2.767-8.946c-0.068-0.156-0.038-0.44,0.065-0.573
	C1855.953,64.835,1856.597,63.834,1857.448,63.066z M1873.539,65.254c1.698-1.95,3.534-1.472,3.534-1.472
	c-1.773,0.617-3.465,2.433-3.465,2.433c-1.305-1.427-3.712-0.127-3.712-0.127C1871.662,64.063,1873.539,65.254,1873.539,65.254z
	 M1855.773,60.237c-0.044,0.087-0.181,0.132-0.305,0.102c-0.124-0.031-0.189-0.126-0.145-0.213c0.003-0.005,0.005-0.01,0.008-0.014
	l2.166-3.279L1855.773,60.237z M1857.659,59.36c-0.039,0.089-0.174,0.138-0.3,0.111c-0.127-0.027-0.198-0.121-0.158-0.21
	c0.005-0.011,0.012-0.023,0.021-0.033l1.097-1.355L1857.659,59.36z M1858.878,60.146c-0.036,0.089-0.168,0.141-0.295,0.116
	c-0.127-0.025-0.201-0.117-0.165-0.206c0.003-0.007,0.007-0.015,0.011-0.021l1.403-2.258L1858.878,60.146z M1855.355,52.898
	c0.34,0,0.663,0.051,0.954,0.141c0.126-0.34,0.568-0.59,1.093-0.59c0.413,0,0.774,0.155,0.971,0.386
	c0.153-0.03,0.313-0.046,0.479-0.046c0.615,0,1.157,0.22,1.474,0.553c0.325-0.271,0.813-0.444,1.359-0.444
	c0.914,0,1.666,0.484,1.76,1.106c0.339,0.035,0.628,0.175,0.799,0.372c0.057-0.016,0.12-0.024,0.185-0.024
	c0.281,0,0.509,0.16,0.509,0.356c0,0.197-0.228,0.356-0.509,0.356c-0.031,0-0.062-0.002-0.091-0.006
	c-0.116,0.219-0.367,0.393-0.682,0.471c-0.159,0.337-0.552,0.599-1.045,0.691c-0.36,0.766-1.391,1.32-2.608,1.32
	c-1.019,0-1.909-0.389-2.382-0.966c-0.205,0.073-0.438,0.114-0.683,0.114c-0.556,0-1.041-0.209-1.305-0.521
	c-0.091,0.008-0.183,0.011-0.277,0.011c-1.296,0-2.346-0.735-2.346-1.641C1853.009,53.633,1854.06,52.898,1855.355,52.898z
	 M1853.417,59.166c-0.12-0.039-0.172-0.138-0.117-0.222c0.004-0.006,0.009-0.012,0.013-0.017l2.104-2.402l-1.684,2.559
	C1853.679,59.168,1853.537,59.205,1853.417,59.166z M1855.053,58.426c0.005-0.011,0.012-0.023,0.021-0.033l1.097-1.355l-0.659,1.488
	c-0.039,0.089-0.174,0.138-0.3,0.111C1855.084,58.609,1855.014,58.515,1855.053,58.426z"/>
<path fill="#8893A4" d="M1846.724,70.658c-2.365-2.716-4.922-2.051-4.922-2.051c2.469,0.859,4.826,3.389,4.826,3.389
	c1.817-1.988,5.17-0.177,5.17-0.177C1849.339,68.999,1846.725,70.658,1846.724,70.658z"/>
<g>
	<g>
		<path fill="#8893A4" d="M1863.343,89.115c0,0,0.197-0.932-0.154-1.341c-0.383-0.447-1.163-0.458-1.163-0.458
			s-0.452-0.612-1.026-0.713c-0.718-0.126-1.488,0.017-1.488,0.017s-0.441-0.391-1.402-0.221c-0.72,0.127-0.787,0.883-0.787,0.883
			s-0.657-0.022-0.923,0.34c-0.289,0.392,0.017,1.222,0.017,1.222s-0.392,0.547-0.274,1.035c0.103,0.424,0.718,0.441,0.718,0.441
			s0.118,0.669,0.65,0.696c0.434,0.022,0.906-0.221,0.906-0.221s0.543,0.246,1.095,0.238c0.568-0.009,1.146-0.271,1.146-0.271
			s0.421,0.395,0.941,0.509c0.523,0.115,0.975-0.475,0.975-0.475s0.655,0.127,0.872-0.373
			C1863.681,89.88,1863.343,89.115,1863.343,89.115z M1861.086,91.287c0,0-0.156-0.058-0.291-0.136
			c-0.111-0.065-0.205-0.153-0.205-0.153s-0.018,0.13-0.046,0.214s-0.085,0.173-0.085,0.173s-0.01-0.058-0.023-0.121
			c-0.016-0.08-0.038-0.169-0.051-0.164c-0.101,0.033-0.205,0.034-0.205,0.034s0.069,0.211,0.034,0.373
			c-0.055,0.251-0.188,0.645-0.188,0.645s-0.138-0.31-0.188-0.509c-0.044-0.173-0.034-0.39-0.034-0.39s-0.222-0.007-0.427-0.034
			c-0.178-0.023-0.342-0.068-0.342-0.068l0.086,0.323c0,0-0.154-0.064-0.274-0.17c-0.111-0.098-0.137-0.238-0.137-0.238
			l-0.205-0.051c0,0,0.098,0.254,0.359,0.526c1.085,0.953,0.883,1.065,0.777,2.002c-0.037,0.409-0.13,0.787-0.203,0.973
			c-0.053,0.138-0.325,0.238-0.325,0.238s0.084,0.068,0.428,0.068c0.163,0,0.619-0.082,0.807-0.096
			c0.106-0.009,0.263,0.032,0.376,0.034c0.137,0.002,0.222-0.034,0.222-0.034s-0.417-0.118-0.479-0.255
			c-0.048-0.105-0.086-0.238-0.086-0.238s-0.122-0.472-0.021-1.553C1860.482,91.775,1861.086,91.287,1861.086,91.287z"/>
	</g>
</g>
<path fill="#8893A4" d="M1875.839,93.358c1.38,0,2.494-0.091,2.494-0.205c0-0.078-0.544-0.146-1.329-0.18
	c0.002-0.014-0.014-0.028-0.014-0.042v-0.761c1.798-0.02,3.435-0.442,2.079-2.143c0.21-1.052-2.5-6.459-2.32-6.595
	c-0.015,0.011-0.028,0.024-0.043,0.035c0-0.011-0.026-0.024-0.041-0.035c0.181,0.135-2.546,5.543-2.335,6.595
	c-1.356,1.701,0.263,2.123,2.061,2.143v0.761c0,0.008-0.001,0.015,0,0.023c-0.175-0.003-0.36-0.005-0.547-0.005
	C1874.464,92.949,1874.459,93.358,1875.839,93.358z"/>
<path fill="#8893A4" d="M1869.391,87.997c-0.186-0.017-0.372,0.002-0.547,0.005c0.001-0.008,0-0.015,0-0.023v-0.761
	c1.798-0.02,3.417-0.442,2.061-2.143c0.21-1.052-2.516-6.459-2.335-6.595c-0.015,0.011-0.041,0.024-0.041,0.035
	c-0.015-0.011-0.027-0.024-0.043-0.035c0.181,0.135-2.53,5.543-2.32,6.595c-1.356,1.701,0.281,2.123,2.079,2.143v0.761
	c0,0.014-0.016,0.028-0.014,0.042c-0.786,0.034-1.329,0.102-1.329,0.18c0,0.113,1.115,0.157,2.494,0.205
	c0.745,0.026,0.947-0.113,0.947-0.226C1870.342,88.067,1869.738,88.029,1869.391,87.997z"/>
</svg>
