<?xml version="1.0" encoding="utf-8"?>
<!-- Generator: Adobe Illustrator 16.0.0, SVG Export Plug-In . SVG Version: 6.00 Build 0)  -->
<!DOCTYPE svg PUBLIC "-//W3C//DTD SVG 1.1//EN" "http://www.w3.org/Graphics/SVG/1.1/DTD/svg11.dtd" [
	<!ENTITY ns_extend "http://ns.adobe.com/Extensibility/1.0/">
	<!ENTITY ns_ai "http://ns.adobe.com/AdobeIllustrator/10.0/">
	<!ENTITY ns_graphs "http://ns.adobe.com/Graphs/1.0/">
	<!ENTITY ns_vars "http://ns.adobe.com/Variables/1.0/">
	<!ENTITY ns_imrep "http://ns.adobe.com/ImageReplacement/1.0/">
	<!ENTITY ns_sfw "http://ns.adobe.com/SaveForWeb/1.0/">
	<!ENTITY ns_custom "http://ns.adobe.com/GenericCustomNamespace/1.0/">
	<!ENTITY ns_adobe_xpath "http://ns.adobe.com/XPath/1.0/">
]>
<svg version="1.1" id="Layer_1" xmlns:x="&ns_extend;" xmlns:i="&ns_ai;" xmlns:graph="&ns_graphs;"
	 xmlns="http://www.w3.org/2000/svg" xmlns:xlink="http://www.w3.org/1999/xlink" x="0px" y="0px" width="71.275px"
	 height="63.283px" viewBox="1368.768 45.921 71.275 63.283" enable-background="new 1368.768 45.921 71.275 63.283"
	 xml:space="preserve">
<metadata>
	<sfw  xmlns="&ns_sfw;">
		<slices></slices>
		<sliceSourceBounds  height="16383" width="16383" bottomLeftOrigin="true" x="-7682" y="-7691"></sliceSourceBounds>
		<optimizationSettings>
			<targetSettings  targetSettingsID="0" fileFormat="PNG24Format">
				<PNG24Format  transparency="true" interlaced="false" filtered="false" noMatteColor="false" matteColor="#FFFFFF">
					</PNG24Format>
			</targetSettings>
		</optimizationSettings>
	</sfw>
</metadata>
<g>
	<path fill="#8792A4" d="M1427.259,84.452v-3.226h-6.104v3.226h-1.554v24.752h14.161V84.452H1427.259z M1422.47,104.546h-1.598
		v-3.679h1.598V104.546z M1422.47,99.517h-1.598v-3.681h1.598V99.517z M1422.47,94.485h-1.598v-3.679h1.598V94.485z M1422.47,89.454
		h-1.598v-3.678h1.598V89.454z M1424.977,104.546h-1.6v-3.679h1.6V104.546z M1424.977,99.517h-1.6v-3.681h1.6V99.517z
		 M1424.977,94.485h-1.6v-3.679h1.6V94.485z M1424.977,89.454h-1.6v-3.678h1.6V89.454z M1427.482,104.546h-1.601v-3.679h1.601
		V104.546z M1427.482,99.517h-1.601v-3.681h1.601V99.517z M1427.482,94.485h-1.601v-3.679h1.601V94.485z M1427.482,89.454h-1.601
		v-3.678h1.601V89.454z M1429.989,104.546h-1.601v-3.679h1.601V104.546z M1429.989,99.517h-1.601v-3.681h1.601V99.517z
		 M1429.989,94.485h-1.601v-3.679h1.601V94.485z M1429.989,89.454h-1.601v-3.678h1.601V89.454z M1432.493,104.546h-1.602v-3.679
		h1.602V104.546z M1432.493,99.517h-1.602v-3.681h1.602V99.517z M1432.493,94.485h-1.602v-3.679h1.602V94.485z M1432.493,89.454
		h-1.602v-3.678h1.602V89.454z"/>
	<polygon fill="#8792A4" points="1416.689,104.06 1416.689,98.04 1415.186,98.04 1415.186,65.322 1414.026,65.322 1414.026,61.828 
		1412.659,61.828 1412.659,59.596 1411.519,59.596 1410.672,53.283 1410.674,53.283 1410.674,52.623 1410.047,52.623 
		1409.97,46.582 1409.823,46.582 1409.746,52.623 1409.12,52.623 1409.12,53.283 1408.276,59.596 1407.137,59.596 1407.137,61.828 
		1405.77,61.828 1405.77,65.322 1404.607,65.322 1404.607,98.04 1403.106,98.04 1403.106,104.06 1401.986,104.06 1401.986,109.204 
		1417.809,109.204 1417.809,104.06 	"/>
	<path fill="#8792A4" d="M1390.095,68.943v40.261h10.097V68.943H1390.095z M1392.571,103.592h-1.374v-3.061h1.374V103.592z
		 M1392.571,99.226h-1.374v-3.061h1.374V99.226z M1392.571,94.86h-1.374V91.8h1.374V94.86z M1392.571,90.494h-1.374v-3.061h1.374
		V90.494z M1392.571,86.129h-1.374v-3.062h1.374V86.129z M1392.571,81.763h-1.374v-3.061h1.374V81.763z M1392.571,77.396h-1.374
		v-3.06h1.374V77.396z M1392.571,73.031h-1.374v-3.061h1.374V73.031z M1394.743,103.592h-1.373v-3.061h1.373V103.592z
		 M1394.743,99.226h-1.373v-3.061h1.373V99.226z M1394.743,94.86h-1.373V91.8h1.373V94.86z M1394.743,90.494h-1.373v-3.061h1.373
		V90.494z M1394.743,86.129h-1.373v-3.062h1.373V86.129z M1394.743,81.763h-1.373v-3.061h1.373V81.763z M1394.743,77.396h-1.373
		v-3.06h1.373V77.396z M1394.743,73.031h-1.373v-3.061h1.373V73.031z M1396.917,103.592h-1.374v-3.061h1.374V103.592z
		 M1396.917,99.226h-1.374v-3.061h1.374V99.226z M1396.917,94.86h-1.374V91.8h1.374V94.86z M1396.917,90.494h-1.374v-3.061h1.374
		V90.494z M1396.917,86.129h-1.374v-3.062h1.374V86.129z M1396.917,81.763h-1.374v-3.061h1.374V81.763z M1396.917,77.396h-1.374
		v-3.06h1.374V77.396z M1396.917,73.031h-1.374v-3.061h1.374V73.031z M1399.089,103.592h-1.372v-3.061h1.372V103.592z
		 M1399.089,99.226h-1.372v-3.061h1.372V99.226z M1399.089,94.86h-1.372V91.8h1.372V94.86z M1399.089,90.494h-1.372v-3.061h1.372
		V90.494z M1399.089,86.129h-1.372v-3.062h1.372V86.129z M1399.089,81.763h-1.372v-3.061h1.372V81.763z M1399.089,77.396h-1.372
		v-3.06h1.372V77.396z M1399.089,73.031h-1.372v-3.061h1.372V73.031z"/>
	<polygon fill="#8792A4" points="1386.549,78.697 1386.549,72.27 1381.024,72.27 1381.024,69.947 1377.076,69.947 1377.076,72.27 
		1375.58,72.27 1375.58,109.204 1375.682,109.204 1386.549,109.204 1388.304,109.204 1388.304,78.697 	"/>
</g>
</svg>
