<?xml version="1.0" encoding="utf-8"?>
<!-- Generator: Adobe Illustrator 16.0.0, SVG Export Plug-In . SVG Version: 6.00 Build 0)  -->
<!DOCTYPE svg PUBLIC "-//W3C//DTD SVG 1.1//EN" "http://www.w3.org/Graphics/SVG/1.1/DTD/svg11.dtd" [
	<!ENTITY ns_extend "http://ns.adobe.com/Extensibility/1.0/">
	<!ENTITY ns_ai "http://ns.adobe.com/AdobeIllustrator/10.0/">
	<!ENTITY ns_graphs "http://ns.adobe.com/Graphs/1.0/">
	<!ENTITY ns_vars "http://ns.adobe.com/Variables/1.0/">
	<!ENTITY ns_imrep "http://ns.adobe.com/ImageReplacement/1.0/">
	<!ENTITY ns_sfw "http://ns.adobe.com/SaveForWeb/1.0/">
	<!ENTITY ns_custom "http://ns.adobe.com/GenericCustomNamespace/1.0/">
	<!ENTITY ns_adobe_xpath "http://ns.adobe.com/XPath/1.0/">
]>
<svg version="1.1" id="Layer_1" xmlns:x="&ns_extend;" xmlns:i="&ns_ai;" xmlns:graph="&ns_graphs;"
	 xmlns="http://www.w3.org/2000/svg" xmlns:xlink="http://www.w3.org/1999/xlink" x="0px" y="0px" width="71.274px"
	 height="63.283px" viewBox="1640.621 45.817 71.274 63.283" enable-background="new 1640.621 45.817 71.274 63.283"
	 xml:space="preserve">
<metadata>
	<sfw  xmlns="&ns_sfw;">
		<slices></slices>
		<sliceSourceBounds  height="16383" width="16383" bottomLeftOrigin="true" x="-7682" y="-7691"></sliceSourceBounds>
		<optimizationSettings>
			<targetSettings  targetSettingsID="0" fileFormat="PNG24Format">
				<PNG24Format  transparency="true" interlaced="false" filtered="false" noMatteColor="false" matteColor="#FFFFFF">
					</PNG24Format>
			</targetSettings>
		</optimizationSettings>
	</sfw>
</metadata>
<g>
	<polygon fill="#8792A4" points="1664.169,91.666 1672.701,95.114 1672.701,92.906 1667.771,90.86 1672.701,88.75 1672.701,86.559 
		1664.169,90.006 	"/>
	<polygon fill="#8792A4" points="1673.336,95.952 1675.156,96.548 1680.135,84.061 1678.315,83.432 	"/>
	<polygon fill="#8792A4" points="1681.234,88.75 1686.164,90.86 1681.234,92.906 1681.234,95.114 1689.766,91.666 1689.766,90.006 
		1681.234,86.559 	"/>
	<path fill="#8792A4" d="M1654.76,68.427h-1.773l-0.467,2.844h-1.258l0.467-2.844h-1.789l-0.467,2.844h-1.657v1.422h1.449
		l-0.242,2.133h-1.207v1.423h0.981l-0.467,2.844h1.772l0.467-2.844h1.273l-0.468,2.844h1.773l0.482-2.844h1.295v-1.423h-1.084
		l0.225-2.133h1.57v-1.422h-1.329L1654.76,68.427z M1652.069,74.825h-1.258l0.21-2.133h1.273L1652.069,74.825z"/>
	<path fill="#8792A4" d="M1709.122,54.206h-65.731c-1.483,0-2.686,1.202-2.686,2.686v45.822c0,1.483,1.202,2.686,2.686,2.686h65.73
		c1.484,0,2.687-1.202,2.687-2.686V56.892C1711.808,55.408,1710.606,54.206,1709.122,54.206z M1657.093,57.437
		c0.973,0,1.763,0.789,1.763,1.763s-0.79,1.763-1.763,1.763s-1.763-0.788-1.763-1.763
		C1655.33,58.226,1656.12,57.437,1657.093,57.437z M1651.722,57.437c0.974,0,1.763,0.789,1.763,1.763s-0.789,1.763-1.763,1.763
		c-0.973,0-1.763-0.788-1.763-1.763C1649.959,58.226,1650.749,57.437,1651.722,57.437z M1646.351,57.437
		c0.973,0,1.763,0.789,1.763,1.763s-0.789,1.763-1.763,1.763s-1.763-0.788-1.763-1.763
		C1644.588,58.226,1645.378,57.437,1646.351,57.437z M1707.542,97.62c0,1.548-1.255,2.803-2.804,2.803h-58.387
		c-1.547,0-2.803-1.255-2.803-2.803V66.962c0-1.547,1.256-2.802,2.803-2.802h58.387c1.549,0,2.804,1.255,2.804,2.802V97.62z"/>
	<path fill="#8792A4" d="M1694.293,69.715c-0.347,0.376-0.261,0.896-0.261,1.536v2.411c0,0.197-0.287,0.361-0.345,0.493
		c-0.057,0.132-0.336,0.232-0.426,0.304c-0.088,0.07-0.195,0.119-0.309,0.147c-0.112,0.028-0.343,0.041-0.343,0.041v1.552
		c0,0,0.243,0.015,0.354,0.043c0.113,0.028,0.265,0.079,0.354,0.154c0.089,0.076,0.329,0.182,0.386,0.318
		c0.056,0.136,0.327,0.312,0.327,0.528v2.354c0,0.639-0.086,0.917,0.261,1.292c0.349,0.376,0.558,0.335,1.15,0.335h2.145v-1.422
		h-0.979c-0.272,0-0.347,0.111-0.426-0.066c-0.081-0.18-0.018-0.173-0.018-0.378V77.06c0-0.311-0.171-0.566-0.264-0.769
		c-0.093-0.203-0.249-0.364-0.385-0.487c-0.136-0.121-0.233-0.211-0.384-0.267c-0.15-0.057-0.39-0.09-0.39-0.1V75.41
		c0-0.01,0.183-0.047,0.331-0.113c0.151-0.066,0.294-0.16,0.43-0.282c0.137-0.121,0.356-0.279,0.449-0.473
		c0.094-0.192,0.212-0.425,0.212-0.697V71.49c0-0.206-0.063-0.441,0.018-0.62c0.079-0.179,0.153-0.311,0.426-0.311h0.979v-1.422
		h-2.145C1694.851,69.138,1694.642,69.339,1694.293,69.715z"/>
	<path fill="#8792A4" d="M1704.046,74.459c-0.09-0.071-0.369-0.172-0.427-0.304c-0.057-0.132-0.344-0.296-0.344-0.493v-2.411
		c0-0.64,0.086-1.16-0.261-1.537c-0.349-0.375-0.558-0.576-1.149-0.576h-2.145v1.422h0.979c0.272,0,0.347,0.132,0.426,0.311
		c0.08,0.179,0.018,0.414,0.018,0.62v2.354c0,0.273,0.118,0.505,0.212,0.698c0.093,0.192,0.312,0.351,0.449,0.473
		c0.136,0.122,0.278,0.216,0.431,0.282c0.148,0.065,0.33,0.103,0.33,0.112v0.027c0,0.01-0.238,0.043-0.39,0.1
		c-0.15,0.057-0.248,0.146-0.384,0.268s-0.292,0.284-0.385,0.487c-0.093,0.202-0.264,0.457-0.264,0.769v2.298
		c0,0.205,0.062,0.198-0.018,0.378c-0.079,0.178-0.153,0.066-0.426,0.066h-0.979v1.422h2.145c0.592,0,0.801,0.041,1.149-0.335
		c0.347-0.375,0.261-0.653,0.261-1.292v-2.354c0-0.217,0.271-0.394,0.327-0.529c0.057-0.136,0.297-0.241,0.386-0.317
		c0.09-0.075,0.241-0.127,0.354-0.154c0.112-0.028,0.354-0.043,0.354-0.043v-1.552c0,0-0.23-0.013-0.344-0.042
		C1704.241,74.578,1704.135,74.529,1704.046,74.459z"/>
</g>
</svg>
